<?xml version="1.0" encoding="UTF-8"?>
<svg width="121px" height="137px" viewBox="0 0 121 137" version="1.1" xmlns="http://www.w3.org/2000/svg" xmlns:xlink="http://www.w3.org/1999/xlink">
    <!-- Generator: Sketch 52.2 (67145) - http://www.bohemiancoding.com/sketch -->
    <title>Artboard Copy</title>
    <desc>Created with Sketch.</desc>
    <g id="Artboard-Copy" stroke="none" stroke-width="1" fill="none" fill-rule="evenodd">
        <path d="M59.3700875,96.5067482 C55.0236837,102.394047 49.4172366,100.897305 46.9103964,93.1787774 L41.6914002,77.1149835 C39.1862158,69.3981457 40.4793744,64.0700138 44.5691335,65.2745027 C48.6555811,66.4773023 53.3679108,67.8642384 55.0385856,68.355832 C56.7092605,68.8474257 62.0325704,70.4168088 66.8707388,71.8392207 C71.7089073,73.2633219 73.7769676,76.9882841 71.4688202,80.1152252 C69.1606728,83.2421662 63.7148357,90.6194496 59.3700875,96.5067482 M6.4808884,1.46905016 C0.917799995,-0.157269785 -2.12761275,3.04512335 -0.28389433,8.58901524 C1.5581434,14.1312322 2.48756573,19.35187 17.1768082,22.788748 L83.1540284,42.0734523 C90.9154611,44.3429307 96.0903098,46.4549693 93.3726318,50.8549101 L90.6549539,55.2548508 C88.6145946,58.5845358 80.5472761,58.0803933 72.7757592,55.8444128 L23.4911657,41.6681285 C15.7196488,39.4321479 10.8674929,42.1270488 12.7044885,47.6541918 C14.5431649,53.1830097 40.2829531,130.591484 40.2829531,130.591484 C42.8275198,138.24239 48.8914542,139.235601 53.755375,132.795642 L117.648538,48.2538031 C122.514139,41.815519 120.144365,34.6905292 112.382932,32.4210508 C112.382932,32.4210508 12.0473382,3.09537011 6.4808884,1.46905016" id="Fill-1" fill="#3A703A" transform="translate(59.677549, 69.045514) rotate(1.000000) translate(-59.677549, -69.045514) "></path>
    </g>
</svg>