<?xml version="1.0" encoding="UTF-8"?>
<svg width="45px" height="45px" viewBox="0 0 45 45" version="1.1" xmlns="http://www.w3.org/2000/svg" xmlns:xlink="http://www.w3.org/1999/xlink">
    <!-- Generator: Sketch 52.2 (67145) - http://www.bohemiancoding.com/sketch -->
    <title>Group</title>
    <desc>Created with Sketch.</desc>
    <g id="Marketing-Landing-Page" stroke="none" stroke-width="1" fill="none" fill-rule="evenodd">
        <g id="Post-Launch-Landing---Concept-A---1" transform="translate(-767.000000, -2223.000000)">
            <g id="Social-Links" transform="translate(628.000000, 2223.000000)">
                <g id="Group" transform="translate(139.000000, 0.000000)">
                    <path d="M44.7209302,22.5 C44.7209302,34.9266797 34.7256977,45 22.3953488,45 C10.0653488,45 0.0697674419,34.9266797 0.0697674419,22.5 C0.0697674419,10.0736719 10.0653488,0 22.3953488,0 C34.7256977,0 44.7209302,10.0736719 44.7209302,22.5" id="Fill-314" fill="#3A703A"></path>
                    <path d="M30.8962857,12 L13.1037143,12 C12.4942857,12 12,12.494 12,13.1037143 L12,30.8962857 C12,31.506 12.4942857,32 13.1037143,32 L22.6825714,32 L22.6825714,24.2551429 L20.0762857,24.2551429 L20.0762857,21.2365714 L22.6825714,21.2365714 L22.6825714,19.0105714 C22.6825714,16.4274286 24.2602857,15.0205714 26.5648571,15.0205714 C27.6685714,15.0205714 28.6171429,15.1028571 28.8937143,15.1397143 L28.8937143,17.8391429 L27.2957143,17.84 C26.0422857,17.84 25.7997143,18.4354286 25.7997143,19.3094286 L25.7997143,21.2365714 L28.7885714,21.2365714 L28.3997143,24.2551429 L25.7997143,24.2551429 L25.7997143,32 L30.8962857,32 C31.506,32 32,31.506 32,30.8962857 L32,13.1037143 C32,12.494 31.506,12 30.8962857,12" id="Fill-315" fill="#FFFFFE"></path>
                </g>
            </g>
        </g>
    </g>
</svg>