<?xml version="1.0" encoding="UTF-8"?>
<svg width="124px" height="140px" viewBox="0 0 124 140" version="1.1" xmlns="http://www.w3.org/2000/svg" xmlns:xlink="http://www.w3.org/1999/xlink">
    <!-- Generator: Sketch 52.2 (67145) - http://www.bohemiancoding.com/sketch -->
    <title>Artboard</title>
    <desc>Created with Sketch.</desc>
    <g id="Artboard" stroke="none" stroke-width="1" fill="none" fill-rule="evenodd" opacity="0.4">
        <path d="M61.3891584,98.4972141 C56.8679597,104.505888 51.036044,102.978289 48.4283888,95.100632 L42.9995057,78.705658 C40.3935729,70.8297255 41.7387372,65.3917459 45.9929698,66.6210673 C50.2437578,67.8486644 55.1455983,69.2641943 56.8834609,69.7659229 C58.6213236,70.2676516 64.1587155,71.86939 69.1914555,73.3211271 C74.2241955,74.7745884 76.3754249,78.5763465 73.9744531,81.7677543 C71.5734813,84.9591621 65.9086347,92.4885397 61.3891584,98.4972141 M7.48441374,0.435993252 C1.78339751,-1.23815963 -1.33752134,2.05842154 0.551909116,7.76536907 C2.43961721,13.4705925 3.39208306,18.8447784 18.4455217,22.382741 L86.0585406,42.2346425 C94.0124056,44.5708703 99.3155563,46.7450276 96.5304979,51.2743784 L93.7454395,55.8037292 C91.6544928,59.2313461 83.3871581,58.7123759 75.422959,56.4106312 L24.9164334,41.8173974 C16.9522343,39.5156527 11.979777,42.2898154 13.862318,47.9795214 C15.7465814,53.6709516 42.1245461,133.356146 42.1245461,133.356146 C44.7322013,141.232079 50.9464812,142.254502 55.9309951,135.625132 L121.408286,48.5967683 C126.394522,41.9691229 123.965993,34.6345746 116.012128,32.2983468 C116.012128,32.2983468 13.1888747,2.11014614 7.48441374,0.435993252" id="Fill-1" fill="#5FBC51"></path>
    </g>
</svg>