<?xml version="1.0" encoding="UTF-8"?>
<svg width="700px" height="514px" viewBox="0 0 700 514" version="1.1" xmlns="http://www.w3.org/2000/svg" xmlns:xlink="http://www.w3.org/1999/xlink">
    <!-- Generator: Sketch 52.2 (67145) - http://www.bohemiancoding.com/sketch -->
    <title>Prepmedians Logo RGB</title>
    <desc>Created with Sketch.</desc>
    <g id="Prepmedians-Logo-RGB" stroke="none" stroke-width="1" fill="none" fill-rule="evenodd">
        <g id="Group">
            <path d="M428.563,204.759 C427.997,206.185 427.425,207.605 426.825,208.997 C426.413,209.958 425.982,210.901 425.555,211.847 C425.023,213.019 424.486,214.183 423.933,215.33 C423.436,216.362 422.93,217.385 422.415,218.398 C421.909,219.392 421.393,220.373 420.87,221.348 C420.286,222.441 419.7,223.532 419.096,224.603 C418.647,225.395 418.185,226.169 417.727,226.949 C417.023,228.145 416.325,229.344 415.598,230.512 C415.465,230.726 415.323,230.931 415.189,231.144 C413.117,234.435 410.953,237.621 408.694,240.692 C408.689,240.698 408.686,240.705 408.681,240.71 L427.836,254.079 C427.836,254.079 428.898,319.781 360.487,330.816 C360.762,330.806 361.038,330.802 361.313,330.791 C372.606,330.336 383.863,329.194 394.988,327.356 C398.061,326.849 401.158,326.3 404.271,325.704 C407.384,325.107 410.511,324.464 413.642,323.768 C424.598,321.33 435.593,318.243 446.14,314.258 C449.152,313.12 452.129,311.908 455.059,310.618 C459.451,308.682 463.736,306.568 467.875,304.257 C467.875,298.431 467.875,292.604 467.875,286.776 C467.875,251.536 467.875,216.295 467.875,181.054 C455.908,185.863 443.941,190.671 431.975,195.479 C431.198,197.824 430.372,200.118 429.513,202.38 C429.207,203.184 428.88,203.965 428.563,204.759" id="Fill-1" fill="#A1E07C"></path>
            <path d="M328.969,220.317 C325.754,218.847 322.578,217.389 319.48,216.145 C290.369,204.448 261.257,192.751 232.145,181.055 C232.145,194.811 232.145,208.568 232.145,222.325 C241.085,218.812 250.293,216.143 259.576,214.396 C262.67,213.813 265.772,213.333 268.876,212.958 C277.152,211.958 285.436,211.706 293.592,212.255 C295.63,212.393 297.662,212.58 299.682,212.819 C307.766,213.772 315.687,215.54 323.311,218.177 C325.217,218.835 327.104,219.549 328.97,220.317 L328.971,220.317 C328.97,220.317 328.97,220.317 328.969,220.317" id="Fill-2" fill="#397037"></path>
            <path d="M369.409,220.617 C364.351,222.649 356.245,227.818 350.01,227.786 C349.282,227.782 348.573,227.724 347.904,227.565 C341.587,226.061 335.201,223.165 328.971,220.317 C327.104,219.549 325.217,218.835 323.311,218.177 C315.687,215.54 307.766,213.772 299.682,212.819 C297.662,212.58 295.63,212.393 293.592,212.255 C285.436,211.706 277.152,211.958 268.876,212.958 C256.462,214.458 244.065,217.641 232.145,222.325 C232.145,240.32 232.145,258.314 232.145,276.31 C232.145,285.621 232.145,294.934 232.145,304.246 C235.701,306.183 239.386,307.924 243.124,309.531 C246.862,311.139 250.655,312.612 254.427,314.015 C254.435,314.018 254.442,314.021 254.449,314.022 C256.144,314.652 257.858,315.227 259.565,315.82 L259.525,315.843 C263.696,317.297 267.904,318.648 272.146,319.894 C273.784,320.375 275.427,320.839 277.075,321.288 C277.902,321.515 278.733,321.728 279.563,321.945 C280.523,322.198 281.485,322.45 282.449,322.692 C283.316,322.91 284.186,323.121 285.056,323.33 C286.005,323.559 286.956,323.782 287.908,324 C288.763,324.196 289.617,324.392 290.474,324.58 C291.514,324.808 292.557,325.025 293.6,325.241 C294.364,325.399 295.127,325.563 295.894,325.716 C297.608,326.055 299.327,326.38 301.048,326.687 C301.737,326.81 302.428,326.921 303.118,327.038 C304.269,327.234 305.419,327.429 306.572,327.61 C307.353,327.733 308.134,327.85 308.915,327.966 C310.002,328.127 311.09,328.284 312.18,328.433 C312.951,328.538 313.723,328.643 314.495,328.741 C315.677,328.893 316.861,329.034 318.044,329.17 C318.707,329.247 319.368,329.328 320.031,329.399 C321.839,329.595 323.649,329.775 325.462,329.936 C325.846,329.969 326.231,329.995 326.616,330.027 C328.098,330.151 329.581,330.267 331.064,330.368 C331.716,330.412 332.369,330.449 333.021,330.489 C334.258,330.564 335.496,330.633 336.734,330.692 C337.418,330.725 338.103,330.755 338.787,330.783 C340.068,330.835 341.35,330.875 342.632,330.909 C343.227,330.925 343.822,330.944 344.418,330.957 C346.282,330.994 348.146,331.018 350.009,331.018 L350.01,331.018 C351.895,331.018 353.779,330.999 355.663,330.962 C357.272,330.93 358.879,330.876 360.487,330.816 C428.898,319.781 427.836,254.079 427.836,254.079 L408.681,240.71 C408.686,240.705 408.689,240.698 408.694,240.692 C410.953,237.621 413.117,234.435 415.189,231.144 C415.323,230.931 415.465,230.726 415.598,230.512 C416.325,229.344 417.023,228.145 417.727,226.949 C418.185,226.169 418.648,225.396 419.096,224.603 C419.7,223.532 420.286,222.441 420.87,221.348 C421.392,220.372 421.91,219.392 422.415,218.398 C422.93,217.385 423.436,216.362 423.933,215.33 C424.486,214.183 425.023,213.019 425.555,211.847 C425.982,210.901 426.413,209.958 426.825,208.997 C427.425,207.604 427.997,206.185 428.563,204.759 C428.88,203.965 429.207,203.184 429.513,202.38 C430.372,200.118 431.198,197.824 431.975,195.479 C411.119,203.858 390.264,212.238 369.409,220.617" id="Fill-3" fill="#60BB55"></path>
            <path d="M318.535,270.225 C324.028,282.785 334.506,292.798 347.487,297.396 C349.835,298.229 352.257,298.905 354.755,299.363 C382.668,304.489 412.109,279.166 414.482,251.232 C395.848,267.482 371.765,275.316 347.487,274.823 C337.755,274.626 327.991,273.096 318.535,270.225" id="Fill-4" fill="#FFFFFF"></path>
            <path d="M481.635,175.526 C477.048,177.369 472.462,179.211 467.876,181.054 C467.876,216.295 467.876,251.536 467.876,286.776 C467.876,292.604 467.876,298.43 467.876,304.257 C463.736,306.568 459.451,308.682 455.059,310.618 C452.129,311.908 449.152,313.12 446.14,314.258 C443.503,315.254 440.838,316.194 438.152,317.082 C430.098,319.745 421.858,321.939 413.642,323.768 C410.511,324.464 407.384,325.107 404.271,325.703 C401.158,326.3 398.061,326.849 394.988,327.356 C383.863,329.194 372.606,330.336 361.313,330.791 C361.038,330.802 360.762,330.806 360.487,330.816 C358.879,330.876 357.272,330.93 355.663,330.962 C353.779,330.999 351.895,331.018 350.01,331.018 L350.009,331.018 C348.146,331.018 346.282,330.994 344.418,330.957 C343.822,330.944 343.227,330.925 342.632,330.909 C341.35,330.875 340.068,330.834 338.787,330.783 C338.103,330.755 337.418,330.725 336.734,330.692 C335.496,330.633 334.258,330.564 333.021,330.489 C332.369,330.449 331.716,330.412 331.064,330.368 C329.581,330.267 328.098,330.151 326.616,330.027 C326.231,329.995 325.846,329.969 325.462,329.936 C323.649,329.775 321.839,329.595 320.031,329.399 C319.368,329.328 318.707,329.247 318.044,329.17 C316.86,329.034 315.677,328.893 314.495,328.741 C313.722,328.643 312.951,328.538 312.18,328.433 C311.09,328.283 310.002,328.127 308.915,327.966 C308.134,327.85 307.353,327.733 306.572,327.61 C305.419,327.429 304.269,327.234 303.118,327.038 C302.428,326.921 301.737,326.81 301.048,326.687 C299.327,326.38 297.608,326.056 295.894,325.716 C295.127,325.563 294.364,325.399 293.6,325.241 C292.557,325.024 291.514,324.808 290.474,324.58 C289.617,324.392 288.763,324.196 287.908,324 C286.956,323.782 286.005,323.56 285.056,323.33 C284.186,323.121 283.316,322.91 282.449,322.692 C281.485,322.45 280.523,322.198 279.563,321.945 C278.733,321.728 277.902,321.515 277.075,321.288 C275.427,320.839 273.784,320.375 272.146,319.894 C267.904,318.648 263.696,317.297 259.525,315.843 L259.565,315.82 C257.858,315.227 256.144,314.652 254.449,314.022 C254.442,314.021 254.435,314.018 254.427,314.015 C250.655,312.612 246.862,311.139 243.124,309.531 C239.386,307.924 235.701,306.183 232.145,304.246 C232.145,263.182 232.145,222.118 232.145,181.055 C227.671,179.257 223.196,177.459 218.722,175.661 C218.722,199.188 218.722,222.714 218.722,246.24 C218.722,264.841 218.722,283.442 218.722,302.044 C218.722,306.564 217.983,310.941 222.133,314 C226.495,317.213 232.311,319.295 237.222,321.438 C272.505,336.833 311.268,344.473 350.01,344.465 C382.534,344.458 415.043,339.067 445.469,328.298 C455.019,324.918 464.475,321.041 473.483,316.392 C477.647,314.242 480.886,312.624 481.299,307.324 C482.419,292.934 481.299,277.998 481.299,263.576 C481.299,234.248 481.7,204.876 481.635,175.526" id="Fill-5" fill="#58595B"></path>
            <path d="M591.189,106.463 C564.503,94.628 363.176,5.35 353.397,1.013 C352.234,0.498 351.096,0.32 350.021,0.393 C350.018,0.392 350.014,0.393 350.01,0.393 C348.933,0.319 347.79,0.496 346.623,1.013 C319.936,12.848 293.249,24.682 266.563,36.516 C223.763,55.496 180.964,74.475 138.164,93.455 C128.386,97.791 118.608,102.127 108.83,106.463 C102.913,109.087 105.76,116.852 110.433,118.73 C131.52,127.202 152.606,135.674 173.693,144.146 C173.693,163.517 173.693,182.888 173.693,202.258 C168.874,204.762 165.49,209.815 165.49,215.505 C165.49,220.892 165.49,226.279 165.49,231.667 L169.964,231.667 L169.964,245.686 C169.964,245.686 170.445,247.334 172.78,247.334 C175.115,247.334 175.596,245.686 175.596,245.686 L175.596,231.667 L185.212,231.667 L185.212,245.686 C185.212,245.686 185.693,247.334 188.028,247.334 C190.363,247.334 190.844,245.686 190.844,245.686 L190.844,231.667 L195.318,231.667 C195.318,226.279 195.318,220.892 195.318,215.505 C195.318,209.84 191.926,204.782 187.115,202.27 C187.115,184.693 187.115,167.116 187.115,149.54 C187.116,149.54 187.116,149.54 187.116,149.54 C188.486,150.09 338.327,211.861 347.904,214.142 C348.573,214.301 349.282,214.359 350.01,214.363 C356.245,214.395 589.046,118.947 589.587,118.73 C594.229,116.865 597.082,109.076 591.189,106.463" id="Fill-6" fill="#58595B"></path>
            <path d="M414.482,251.232 C412.109,279.166 382.668,304.489 354.755,299.363 C352.257,298.905 349.835,298.229 347.487,297.396 C334.506,292.798 324.028,282.785 318.535,270.225 C327.991,273.096 337.755,274.626 347.487,274.823 C371.765,275.316 395.848,267.482 414.482,251.232 Z M347.487,261.314 C346.82,261.287 346.159,261.277 345.489,261.235 C337.253,260.728 329.113,259.158 321.208,256.81 C318.561,256.024 315.965,255.113 313.374,254.165 C313.178,254.093 312.565,253.849 312.123,253.672 C312.448,253.811 312.736,253.929 311.973,253.618 C311.386,253.378 311.661,253.489 312.123,253.672 C311.986,253.615 311.845,253.554 311.768,253.519 C306.132,250.931 301.033,255.159 301.909,261.098 C305.486,285.366 324.392,305.039 347.487,311.356 C350.604,312.209 353.796,312.826 357.039,313.17 C389.884,316.654 424.424,287.165 427.836,254.078 C431.46,257.482 434.661,261.211 437.301,264.866 C442.311,271.805 453.961,265.112 448.891,258.092 C437.36,242.121 417.904,225.442 396.552,227.34 C388.015,228.099 387.935,241.529 396.552,240.763 C399.562,240.496 402.53,240.72 405.429,241.333 C389.33,255.4 369.33,262.198 347.487,261.314 Z" id="Fill-7" fill="#58595B"></path>
            <path d="M429.731,49.458 C409.937,115.861 358.022,159.616 312.646,186.345 L348.742,201.121 L570.665,111.956 C565.471,109.652 471.515,67.987 429.731,49.458" id="Fill-8" fill="#A7A9AC"></path>
            <path d="M42.109,437.907 C44.065,436.421 45.618,434.442 46.767,431.974 C47.915,429.508 48.489,426.87 48.489,424.063 C48.489,419.725 47.233,416.045 44.725,413.025 C42.215,410.007 39.216,408.494 35.729,408.494 L11.739,408.494 L11.739,440.14 L35.729,440.14 C38.025,440.14 40.151,439.396 42.109,437.907 Z M48.234,400.392 C52.062,402.816 55.102,406.114 57.357,410.281 C59.61,414.45 60.739,419.044 60.739,424.063 C60.739,429.083 59.61,433.719 57.357,437.972 C55.102,442.226 52.062,445.585 48.234,448.052 C44.406,450.521 40.237,451.753 35.729,451.753 L11.739,451.753 L11.739,479.952 C11.739,481.655 11.186,483.101 10.081,484.291 C8.974,485.483 7.57,486.077 5.87,486.077 C4.083,486.077 2.658,485.503 1.595,484.354 C0.53,483.206 -1.0658141e-14,481.738 -1.0658141e-14,479.952 L-1.0658141e-14,402.88 C-1.0658141e-14,401.18 0.594,399.734 1.787,398.542 C2.977,397.352 4.422,396.755 6.125,396.755 L35.729,396.755 C40.237,396.755 44.406,397.968 48.234,400.392 Z" id="Fill-42" fill="#58595B"></path>
            <path d="M106.42,419.405 C108.035,420.553 108.844,421.979 108.844,423.68 C108.844,425.722 108.312,427.274 107.249,428.338 C106.185,429.401 104.889,429.932 103.357,429.932 C102.592,429.932 101.443,429.677 99.912,429.166 C98.125,428.573 96.722,428.273 95.701,428.273 C93.063,428.273 90.489,429.188 87.981,431.017 C85.471,432.848 83.429,435.355 81.856,438.546 C80.281,441.735 79.496,445.289 79.496,449.2 L79.496,479.952 C79.496,481.655 78.921,483.101 77.773,484.291 C76.625,485.483 75.157,486.077 73.371,486.077 C71.584,486.077 70.137,485.503 69.032,484.354 C67.925,483.206 67.373,481.738 67.373,479.952 L67.373,425.339 C67.373,423.638 67.948,422.192 69.096,421 C70.244,419.81 71.668,419.213 73.371,419.213 C75.157,419.213 76.625,419.81 77.773,421 C78.921,422.192 79.496,423.638 79.496,425.339 L79.496,431.847 C81.366,427.679 84.173,424.298 87.917,421.701 C91.66,419.108 95.912,417.769 100.678,417.683 C102.889,417.683 104.803,418.257 106.42,419.405" id="Fill-43" fill="#58595B"></path>
            <path d="M124.667,432.932 C121.178,435.61 118.881,439.757 117.777,445.372 L155.42,445.372 L155.42,444.352 C154.993,439.844 152.973,436.143 149.358,433.25 C145.742,430.359 141.639,428.911 137.045,428.911 C132.28,428.911 128.155,430.251 124.667,432.932 Z M166.394,453.984 C165.202,455.05 163.798,455.58 162.183,455.58 L117.267,455.58 C117.861,461.791 120.222,466.768 124.349,470.51 C128.474,474.254 133.514,476.124 139.47,476.124 C143.553,476.124 146.87,475.53 149.422,474.338 C151.974,473.147 154.228,471.616 156.186,469.744 C157.461,468.979 158.693,468.596 159.886,468.596 C161.332,468.596 162.543,469.106 163.523,470.127 C164.5,471.147 164.99,472.341 164.99,473.7 C164.99,475.486 164.139,477.104 162.438,478.549 C159.97,481.017 156.696,483.101 152.613,484.802 C148.529,486.502 144.36,487.354 140.107,487.354 C133.217,487.354 127.156,485.908 121.924,483.015 C116.692,480.124 112.651,476.083 109.802,470.893 C106.951,465.705 105.527,459.835 105.527,453.283 C105.527,446.138 106.994,439.865 109.93,434.462 C112.864,429.061 116.734,424.914 121.542,422.021 C126.346,419.13 131.514,417.683 137.045,417.683 C142.488,417.683 147.592,419.086 152.357,421.894 C157.121,424.7 160.948,428.573 163.842,433.505 C166.732,438.44 168.222,443.969 168.308,450.093 C168.222,451.625 167.584,452.923 166.394,453.984 Z" id="Fill-44" fill="#58595B"></path>
            <path d="M344.398,445.882 L344.398,479.952 C344.398,481.738 343.844,483.206 342.74,484.354 C341.633,485.503 340.188,486.077 338.401,486.077 C336.615,486.077 335.147,485.483 333.999,484.291 C332.85,483.101 332.276,481.655 332.276,479.952 L332.276,446.01 C332.276,434.867 327.597,429.294 318.24,429.294 C314.922,429.294 311.923,430.039 309.244,431.527 C306.564,433.017 304.479,435.036 302.991,437.589 C301.502,440.14 300.758,442.948 300.758,446.01 L300.758,479.952 C300.758,481.655 300.184,483.101 299.036,484.291 C297.887,485.483 296.42,486.077 294.633,486.077 C292.847,486.077 291.399,485.503 290.295,484.354 C289.188,483.206 288.636,481.738 288.636,479.952 L288.636,445.882 C288.636,440.864 287.572,436.845 285.446,433.824 C283.318,430.805 279.788,429.294 274.854,429.294 C269.834,429.294 265.688,430.889 262.414,434.079 C259.138,437.269 257.501,441.205 257.501,445.882 L257.501,479.952 C257.501,481.655 256.927,483.101 255.778,484.291 C254.63,485.483 253.162,486.077 251.376,486.077 C249.59,486.077 248.142,485.503 247.038,484.354 C245.931,483.206 245.378,481.738 245.378,479.952 L245.378,425.339 C245.378,423.638 245.953,422.192 247.102,421 C248.25,419.81 249.673,419.213 251.376,419.213 C253.162,419.213 254.63,419.81 255.778,421 C256.927,422.192 257.501,423.638 257.501,425.339 L257.501,429.804 C259.712,426.487 262.669,423.701 266.369,421.446 C270.07,419.193 274.089,418.064 278.428,418.064 C288.975,418.064 295.824,422.745 298.972,432.102 C300.842,428.528 303.948,425.296 308.287,422.403 C312.625,419.513 317.219,418.064 322.068,418.064 C336.954,418.064 344.398,427.339 344.398,445.882" id="Fill-45" fill="#60BB55"></path>
            <path d="M369.919,432.932 C366.43,435.61 364.133,439.757 363.028,445.372 L400.672,445.372 L400.672,444.352 C400.245,439.844 398.226,436.143 394.611,433.25 C390.994,430.359 386.892,428.911 382.297,428.911 C377.531,428.911 373.406,430.251 369.919,432.932 Z M411.646,453.984 C410.453,455.05 409.051,455.58 407.435,455.58 L362.518,455.58 C363.112,461.791 365.473,466.768 369.6,470.51 C373.725,474.254 378.766,476.124 384.722,476.124 C388.804,476.124 392.123,475.53 394.675,474.338 C397.227,473.147 399.479,471.616 401.438,469.744 C402.713,468.979 403.945,468.596 405.138,468.596 C406.584,468.596 407.795,469.106 408.773,470.127 C409.751,471.147 410.241,472.341 410.241,473.7 C410.241,475.486 409.391,477.104 407.689,478.549 C405.222,481.017 401.947,483.101 397.865,484.802 C393.78,486.502 389.613,487.354 385.358,487.354 C378.468,487.354 372.407,485.908 367.176,483.015 C361.943,480.124 357.902,476.083 355.053,470.893 C352.202,465.705 350.779,459.835 350.779,453.283 C350.779,446.138 352.246,439.865 355.181,434.462 C358.116,429.061 361.985,424.914 366.793,422.021 C371.598,419.13 376.766,417.683 382.297,417.683 C387.74,417.683 392.845,419.086 397.61,421.894 C402.373,424.7 406.2,428.573 409.094,433.505 C411.983,438.44 413.474,443.969 413.561,450.093 C413.474,451.625 412.836,452.923 411.646,453.984 Z" id="Fill-46" fill="#60BB55"></path>
            <path d="M458.795,473.063 C461.897,471.021 464.323,468.213 466.067,464.641 C467.811,461.067 468.684,457.028 468.684,452.519 C468.684,448.096 467.811,444.076 466.067,440.46 C464.323,436.845 461.897,434.016 458.795,431.974 C455.688,429.932 452.137,428.911 448.14,428.911 C444.14,428.911 440.588,429.932 437.484,431.974 C434.379,434.016 431.953,436.845 430.211,440.46 C428.466,444.076 427.595,448.096 427.595,452.519 C427.595,457.028 428.466,461.067 430.211,464.641 C431.953,468.213 434.379,471.021 437.484,473.063 C440.588,475.104 444.14,476.124 448.14,476.124 C452.137,476.124 455.688,475.104 458.795,473.063 Z M478.572,393.374 C479.721,394.522 480.295,395.99 480.295,397.776 L480.295,479.952 C480.295,481.655 479.721,483.101 478.572,484.291 C477.424,485.483 475.956,486.077 474.17,486.077 C472.384,486.077 470.937,485.503 469.832,484.354 C468.725,483.206 468.173,481.738 468.173,479.952 L468.173,476.38 C466.046,479.442 463.047,482.038 459.178,484.164 C455.306,486.289 451.157,487.354 446.735,487.354 C440.949,487.354 435.718,485.866 431.041,482.887 C426.36,479.911 422.661,475.764 419.939,470.446 C417.216,465.131 415.855,459.153 415.855,452.519 C415.855,445.882 417.196,439.906 419.875,434.59 C422.555,429.274 426.233,425.127 430.913,422.148 C435.59,419.172 440.738,417.683 446.354,417.683 C450.861,417.683 455.029,418.62 458.857,420.49 C462.687,422.362 465.791,424.786 468.173,427.763 L468.173,397.776 C468.173,395.99 468.725,394.522 469.832,393.374 C470.937,392.226 472.384,391.651 474.17,391.651 C475.956,391.651 477.424,392.226 478.572,393.374 Z" id="Fill-47" fill="#60BB55"></path>
            <path d="M500.393,484.291 C499.244,485.483 497.776,486.077 495.99,486.077 C494.287,486.077 492.864,485.483 491.715,484.291 C490.566,483.101 489.993,481.655 489.993,479.952 L489.993,424.7 C489.993,423 490.566,421.554 491.715,420.362 C492.864,419.172 494.287,418.575 495.99,418.575 C497.776,418.575 499.244,419.172 500.393,420.362 C501.54,421.554 502.115,423 502.115,424.7 L502.115,479.952 C502.115,481.655 501.54,483.101 500.393,484.291" id="Fill-48" fill="#60BB55"></path>
            <path d="M642.706,445.244 L642.706,479.952 C642.706,481.655 642.133,483.101 640.984,484.291 C639.835,485.483 638.368,486.077 636.581,486.077 C634.879,486.077 633.455,485.483 632.307,484.291 C631.159,483.101 630.584,481.655 630.584,479.952 L630.584,445.372 C630.584,440.354 629.436,436.356 627.14,433.377 C624.842,430.4 621.098,428.911 615.909,428.911 C612.507,428.911 609.422,429.657 606.658,431.145 C603.894,432.634 601.725,434.634 600.151,437.142 C598.575,439.651 597.79,442.395 597.79,445.372 L597.79,479.952 C597.79,481.655 597.216,483.101 596.067,484.291 C594.919,485.483 593.452,486.077 591.666,486.077 C589.879,486.077 588.432,485.503 587.327,484.354 C586.221,483.206 585.668,481.738 585.668,479.952 L585.668,425.339 C585.668,423.638 586.242,422.192 587.392,421 C588.539,419.81 589.963,419.213 591.666,419.213 C593.452,419.213 594.919,419.81 596.067,421 C597.216,422.192 597.79,423.638 597.79,425.339 L597.79,429.804 C600.002,426.403 603.085,423.532 607.041,421.191 C610.997,418.854 615.229,417.683 619.738,417.683 C635.051,417.683 642.706,426.87 642.706,445.244" id="Fill-49" fill="#60BB55"></path>
            <path d="M648.193,472.168 C648.193,470.468 649.086,469.022 650.872,467.831 C651.722,467.236 652.701,466.937 653.808,466.937 C655.339,466.937 656.742,467.575 658.019,468.852 C660.57,471.744 663.313,473.913 666.249,475.358 C669.184,476.807 672.692,477.527 676.775,477.527 C680.008,477.444 682.857,476.699 685.325,475.295 C687.792,473.892 689.025,471.616 689.025,468.469 C689.025,465.577 687.77,463.364 685.261,461.832 C682.751,460.302 679.073,458.898 674.224,457.622 C669.458,456.346 665.503,455.007 662.356,453.603 C659.208,452.199 656.551,450.157 654.381,447.478 C652.212,444.798 651.127,441.289 651.127,436.95 C651.127,433.122 652.212,429.763 654.381,426.87 C656.551,423.979 659.441,421.725 663.059,420.107 C666.673,418.492 670.607,417.683 674.862,417.683 C678.945,417.683 683.006,418.447 687.048,419.979 C691.087,421.511 694.385,423.852 696.938,426.997 C697.958,428.189 698.468,429.422 698.468,430.698 C698.468,432.06 697.787,433.377 696.427,434.653 C695.575,435.419 694.512,435.803 693.236,435.803 C691.705,435.803 690.471,435.291 689.536,434.271 C687.749,432.229 685.559,430.655 682.965,429.549 C680.368,428.445 677.498,427.891 674.352,427.891 C671.118,427.891 668.374,428.55 666.121,429.868 C663.866,431.188 662.74,433.421 662.74,436.567 C662.823,439.547 664.122,441.757 666.632,443.203 C669.14,444.65 672.99,446.054 678.179,447.414 C682.688,448.605 686.43,449.883 689.409,451.241 C692.385,452.604 694.896,454.624 696.938,457.303 C698.979,459.983 700,463.492 700,467.831 C700,471.83 698.851,475.295 696.555,478.229 C694.257,481.165 691.259,483.42 687.559,484.992 C683.857,486.566 679.922,487.354 675.755,487.354 C670.396,487.354 665.438,486.417 660.89,484.547 C656.337,482.677 652.487,479.697 649.341,475.614 C648.576,474.423 648.193,473.275 648.193,472.168" id="Fill-50" fill="#60BB55"></path>
            <path d="M541.274,462.976 C538.616,466.505 535.187,465.607 533.653,460.981 L530.462,451.351 C528.929,446.725 529.72,443.53 532.221,444.252 C534.722,444.974 537.604,445.805 538.625,446.1 C539.646,446.395 542.903,447.335 545.862,448.188 C548.82,449.042 550.086,451.274 548.674,453.149 C547.262,455.024 543.932,459.446 541.274,462.976 Z M509.58,405.377 C506.227,404.394 504.392,406.331 505.503,409.682 C506.613,413.033 507.173,416.189 516.024,418.269 L555.78,429.929 C560.457,431.301 563.574,432.578 561.937,435.238 L560.299,437.899 C559.07,439.911 554.209,439.606 549.526,438.255 L519.829,429.684 C515.146,428.332 512.222,429.961 513.33,433.304 C514.438,436.646 529.947,483.451 529.947,483.451 C531.48,488.077 535.134,488.677 538.065,484.784 L576.564,433.665 C579.496,429.772 578.068,425.465 573.392,424.093 C573.392,424.093 512.933,406.36 509.58,405.377 Z" id="Fill-51" fill="#60BB55"></path>
            <path d="M224.771,464.576 C223.026,468.107 220.58,470.893 217.434,472.935 C214.286,474.976 210.755,475.997 206.843,475.997 C202.843,475.997 199.271,474.998 196.124,472.998 C192.976,471 190.53,468.213 188.787,464.641 C187.043,461.067 186.171,457.069 186.171,452.646 C186.171,448.223 187.043,444.224 188.787,440.65 C190.53,437.078 192.976,434.292 196.124,432.292 C199.271,430.295 202.843,429.294 206.843,429.294 C210.755,429.294 214.286,430.315 217.434,432.356 C220.58,434.398 223.026,437.186 224.771,440.715 C226.514,444.245 227.387,448.223 227.387,452.646 C227.387,457.069 226.514,461.047 224.771,464.576 Z M234.979,434.78 C232.3,429.508 228.619,425.402 223.942,422.468 C219.262,419.532 214.031,418.064 208.247,418.064 C203.822,418.064 199.653,419.13 195.741,421.256 C191.828,423.383 188.851,425.935 186.81,428.911 L186.81,425.211 C186.81,423.424 186.235,421.937 185.086,420.745 C183.938,419.555 182.471,418.958 180.685,418.958 C178.898,418.958 177.451,419.555 176.346,420.745 C175.239,421.937 174.687,423.424 174.687,425.211 L174.687,507.499 C174.687,509.285 175.261,510.753 176.41,511.9 C177.558,513.049 178.981,513.624 180.685,513.624 C182.471,513.624 183.938,513.027 185.086,511.837 C186.235,510.645 186.81,509.199 186.81,507.499 L186.81,477.145 C189.19,479.952 192.296,482.335 196.124,484.291 C199.953,486.246 204.078,487.226 208.502,487.226 C214.116,487.226 219.262,485.738 223.942,482.76 C228.619,479.782 232.3,475.679 234.979,470.446 C237.659,465.215 238.999,459.281 238.999,452.646 C238.999,446.01 237.659,440.057 234.979,434.78 Z" id="Fill-52" fill="#58595B"></path>
        </g>
    </g>
</svg>