<?xml version="1.0" encoding="UTF-8"?>
<svg width="150px" height="102px" viewBox="0 0 150 102" version="1.1" xmlns="http://www.w3.org/2000/svg" xmlns:xlink="http://www.w3.org/1999/xlink">
    <!-- Generator: Sketch 52.2 (67145) - http://www.bohemiancoding.com/sketch -->
    <title>Artboard</title>
    <desc>Created with Sketch.</desc>
    <defs>
        <polygon id="path-1" points="0.0516 0.17088 3.3482 0.17088 3.3482 4.2 0.0516 4.2"></polygon>
        <polygon id="path-3" points="0.04678 0.03756 3.17558 0.03756 3.17558 4 0.04678 4"></polygon>
        <polygon id="path-5" points="0.17036 0.17088 3.04256 0.17088 3.04256 4.2 0.17036 4.2"></polygon>
    </defs>
    <g id="Artboard" stroke="none" stroke-width="1" fill="none" fill-rule="evenodd">
        <g id="Group-69">
            <path d="M34.64218,101.04558 C34.74918,100.96758 34.80258,100.84738 34.80258,100.68398 C34.80258,100.36118 34.59038,100.19978 34.16598,100.19978 L33.23338,100.19978 L33.23338,101.16258 L34.16598,101.16258 C34.37658,101.16258 34.53518,101.12378 34.64218,101.04558 Z M33.23338,98.62478 L33.23338,99.54318 L34.02778,99.54318 C34.22518,99.54318 34.37498,99.50418 34.47698,99.42618 C34.57898,99.34838 34.62978,99.23318 34.62978,99.08138 C34.62978,98.92918 34.57898,98.81518 34.47698,98.73898 C34.37498,98.66298 34.22518,98.62478 34.02778,98.62478 L33.23338,98.62478 Z M35.43918,100.16918 C35.55098,100.33438 35.60698,100.53758 35.60698,100.77858 C35.60698,101.11998 35.48938,101.38238 35.25418,101.56618 C35.01898,101.74978 34.67578,101.84138 34.22518,101.84138 L32.43858,101.84138 L32.43858,97.94598 L34.12658,97.94598 C34.54758,97.94598 34.87098,98.03698 35.09638,98.21858 C35.32138,98.40058 35.43438,98.64718 35.43438,98.95878 C35.43438,99.14818 35.39398,99.31678 35.31338,99.46538 C35.23278,99.61378 35.12018,99.73078 34.97538,99.81598 C35.17278,99.88638 35.32738,100.00418 35.43918,100.16918 Z" id="Fill-1" fill="#A7A9AC"></path>
            <polygon id="Fill-3" fill="#A7A9AC" points="38.76542 101.11804 38.76542 101.84144 36.09062 101.84144 36.09062 97.94604 38.70122 97.94604 38.70122 98.66944 36.88522 98.66944 36.88522 99.51524 38.48902 99.51524 38.48902 100.21644 36.88522 100.21644 36.88522 101.11804"></polygon>
            <g id="Group-7" transform="translate(39.000000, 97.708400)">
                <mask id="mask-2" fill="white">
                    <use xlink:href="#path-1"></use>
                </mask>
                <g id="Clip-6"></g>
                <path d="M0.967,3.94128 C0.6824,3.76868 0.4588,3.52928 0.296,3.22308 C0.133,2.91708 0.0516,2.57128 0.0516,2.18548 C0.0516,1.79968 0.133,1.45368 0.296,1.14748 C0.4588,0.84128 0.6824,0.60208 0.967,0.42948 C1.2516,0.25708 1.5714,0.17088 1.9268,0.17088 C2.2262,0.17088 2.497,0.23028 2.7386,0.34888 C2.9804,0.46768 3.1836,0.63808 3.3482,0.86088 L2.835,1.39508 C2.6014,1.09088 2.3118,0.93868 1.9664,0.93868 C1.7524,0.93868 1.5616,0.99168 1.394,1.09748 C1.226,1.20328 1.0954,1.35068 1.0016,1.53988 C0.9078,1.72888 0.861,1.94428 0.861,2.18548 C0.861,2.42668 0.9078,2.64168 1.0016,2.83088 C1.0954,3.02008 1.226,3.16748 1.394,3.27328 C1.5616,3.37888 1.7524,3.43188 1.9664,3.43188 C2.3118,3.43188 2.6014,3.27828 2.835,2.97008 L3.3482,3.50408 C3.1836,3.73048 2.9796,3.90328 2.7362,4.02168 C2.4926,4.14048 2.2212,4.20008 1.922,4.20008 C1.5698,4.20008 1.2516,4.11348 0.967,3.94128" id="Fill-5" fill="#A7A9AC" mask="url(#mask-2)"></path>
            </g>
            <path d="M44.717,100.32214 L44.1692,98.83074 L43.6214,100.32214 L44.717,100.32214 Z M44.9688,101.00674 L43.3648,101.00674 L43.0588,101.84154 L42.2396,101.84154 L43.7794,97.94594 L44.569,97.94594 L46.1136,101.84154 L45.2746,101.84154 L44.9688,101.00674 Z" id="Fill-8" fill="#A7A9AC"></path>
            <g id="Group-12" transform="translate(46.200000, 97.908400)">
                <mask id="mask-4" fill="white">
                    <use xlink:href="#path-3"></use>
                </mask>
                <g id="Clip-11"></g>
                <path d="M0.45898,3.53816 C0.18418,3.22996 0.04678,2.79056 0.04678,2.21896 L0.04678,0.03756 L0.84638,0.03756 L0.84638,2.18576 C0.84638,2.88336 1.10278,3.23196 1.61618,3.23196 C1.86618,3.23196 2.05698,3.14756 2.18858,2.97876 C2.32018,2.80976 2.38598,2.54556 2.38598,2.18576 L2.38598,0.03756 L3.17558,0.03756 L3.17558,2.21896 C3.17558,2.79056 3.03818,3.22996 2.76338,3.53816 C2.48878,3.84596 2.10478,4.00016 1.61118,4.00016 C1.11778,4.00016 0.73358,3.84596 0.45898,3.53816" id="Fill-10" fill="#A7A9AC" mask="url(#mask-4)"></path>
            </g>
            <g id="Group-15" transform="translate(49.600000, 97.708400)">
                <mask id="mask-6" fill="white">
                    <use xlink:href="#path-5"></use>
                </mask>
                <g id="Clip-14"></g>
                <path d="M0.78476,4.07468 C0.52976,3.99128 0.32496,3.88268 0.17036,3.74908 L0.44176,3.07028 C0.58976,3.19268 0.76576,3.29108 0.96976,3.36508 C1.17376,3.43948 1.37776,3.47648 1.58176,3.47648 C1.80876,3.47648 1.97656,3.43848 2.08516,3.36228 C2.19376,3.28648 2.24796,3.18548 2.24796,3.05908 C2.24796,2.96628 2.21596,2.88908 2.15176,2.82828 C2.08756,2.76688 2.00536,2.71788 1.90496,2.68068 C1.80476,2.64368 1.66896,2.60288 1.49776,2.55808 C1.23456,2.48768 1.01916,2.41728 0.85136,2.34668 C0.68356,2.27648 0.53956,2.16308 0.41956,2.00728 C0.29936,1.85148 0.23936,1.64368 0.23936,1.38408 C0.23936,1.15768 0.29376,0.95268 0.40236,0.76908 C0.51076,0.58548 0.67456,0.43968 0.89336,0.33228 C1.11216,0.22468 1.37956,0.17088 1.69536,0.17088 C1.91556,0.17088 2.13116,0.20048 2.34176,0.25988 C2.55236,0.31928 2.73656,0.40448 2.89456,0.51588 L2.64776,1.20028 C2.32856,0.99628 2.00956,0.89448 1.69036,0.89448 C1.46656,0.89448 1.30136,0.93508 1.19436,1.01668 C1.08756,1.09848 1.03396,1.20588 1.03396,1.33928 C1.03396,1.47288 1.09576,1.57228 1.21916,1.63708 C1.34256,1.70228 1.53076,1.76608 1.78416,1.82908 C2.04736,1.89968 2.26276,1.97028 2.43056,2.04048 C2.59836,2.11128 2.74236,2.22248 2.86236,2.37448 C2.98256,2.52668 3.04256,2.73268 3.04256,2.99228 C3.04256,3.21488 2.98736,3.41808 2.87716,3.60168 C2.76696,3.78528 2.60156,3.93088 2.38136,4.03828 C2.16076,4.14588 1.89276,4.20008 1.57676,4.20008 C1.30376,4.20008 1.03976,4.15828 0.78476,4.07468" id="Fill-13" fill="#A7A9AC" mask="url(#mask-6)"></path>
            </g>
            <polygon id="Fill-16" fill="#A7A9AC" points="55.7416 101.11804 55.7416 101.84144 53.0668 101.84144 53.0668 97.94604 55.6776 97.94604 55.6776 98.66944 53.8614 98.66944 53.8614 99.51524 55.4652 99.51524 55.4652 100.21644 53.8614 100.21644 53.8614 101.11804"></polygon>
            <polygon id="Fill-18" fill="#A7A9AC" points="57.52792 97.94598 58.32752 97.94598 58.32752 101.10698 60.05972 101.10698 60.05972 101.84158 57.52792 101.84158"></polygon>
            <polygon id="Fill-20" fill="#A7A9AC" points="63.06006 101.11804 63.06006 101.84144 60.38526 101.84144 60.38526 97.94604 62.99606 97.94604 62.99606 98.66944 61.17986 98.66944 61.17986 99.51524 62.78366 99.51524 62.78366 100.21644 61.17986 100.21644 61.17986 101.11804"></polygon>
            <path d="M65.59668,100.32214 L65.04888,98.83074 L64.50108,100.32214 L65.59668,100.32214 Z M65.84848,101.00674 L64.24448,101.00674 L63.93848,101.84154 L63.11928,101.84154 L64.65908,97.94594 L65.44868,97.94594 L66.99328,101.84154 L66.15428,101.84154 L65.84848,101.00674 Z" id="Fill-22" fill="#A7A9AC"></path>
            <path d="M69.22872,98.85594 C69.10372,98.73894 68.92092,98.68054 68.68092,98.68054 L68.02952,98.68054 L68.02952,100.03854 L68.68092,100.03854 C68.92092,100.03854 69.10372,99.97914 69.22872,99.86014 C69.35372,99.74174 69.41612,99.57474 69.41612,99.35974 C69.41612,99.14054 69.35372,98.97294 69.22872,98.85594 Z M69.43112,101.84154 L68.76472,100.75634 L68.72532,100.75634 L68.02952,100.75634 L68.02952,101.84154 L67.22992,101.84154 L67.22992,97.94594 L68.72532,97.94594 C69.03132,97.94594 69.29692,98.00354 69.52232,98.11854 C69.74772,98.23374 69.92132,98.39674 70.04292,98.60834 C70.16472,98.81974 70.22552,99.06994 70.22552,99.35974 C70.22552,99.64894 70.16392,99.89834 70.04052,100.10814 C69.91712,100.31774 69.74192,100.47794 69.51492,100.58934 L70.28992,101.84154 L69.43112,101.84154 Z" id="Fill-24" fill="#A7A9AC"></path>
            <polygon id="Fill-26" fill="#A7A9AC" points="73.90214 97.94598 73.90214 101.84158 73.24574 101.84158 71.52334 99.47618 71.52334 101.84158 70.73374 101.84158 70.73374 97.94598 71.39514 97.94598 73.11254 100.31118 73.11254 97.94598"></polygon>
            <polygon id="Fill-28" fill="#A7A9AC" points="74.5978 101.8416 75.3974 101.8416 75.3974 97.946 74.5978 97.946"></polygon>
            <polygon id="Fill-30" fill="#A7A9AC" points="79.26152 97.94598 79.26152 101.84158 78.60512 101.84158 76.88272 99.47618 76.88272 101.84158 76.09312 101.84158 76.09312 97.94598 76.75452 97.94598 78.47192 100.31118 78.47192 97.94598"></polygon>
            <path d="M82.2916,99.8325 L83.0218,99.8325 L83.0218,101.4129 C82.8344,101.5725 82.6174,101.6951 82.3708,101.7801 C82.1238,101.8657 81.8754,101.9085 81.6254,101.9085 C81.2668,101.9085 80.9444,101.8219 80.658,101.6497 C80.3718,101.4771 80.1472,101.2377 79.9846,100.9315 C79.8216,100.6255 79.7402,100.2797 79.7402,99.8939 C79.7402,99.5081 79.8216,99.1619 79.9846,98.8559 C80.1472,98.5497 80.3734,98.3105 80.663,98.1379 C80.9526,97.9655 81.2782,97.8793 81.6402,97.8793 C81.943,97.8793 82.2176,97.9367 82.4644,98.0517 C82.7112,98.1667 82.9184,98.3337 83.0862,98.5527 L82.5728,99.0867 C82.3262,98.7939 82.0284,98.6471 81.6796,98.6471 C81.4592,98.6471 81.2634,98.6991 81.0924,98.8031 C80.9212,98.9069 80.788,99.0533 80.6926,99.2427 C80.5972,99.4319 80.5496,99.6489 80.5496,99.8939 C80.5496,100.1351 80.5972,100.3501 80.6926,100.5393 C80.788,100.7283 80.9204,100.8759 81.09,100.9817 C81.2594,101.0873 81.4528,101.1403 81.6698,101.1403 C81.9,101.1403 82.1072,101.0847 82.2916,100.9733 L82.2916,99.8325 Z" id="Fill-31" fill="#A7A9AC"></path>
            <polygon id="Fill-32" fill="#A7A9AC" points="84.912 101.8416 85.7114 101.8416 85.7114 97.946 84.912 97.946"></polygon>
            <path d="M86.7502,101.78308 C86.4952,101.69968 86.2902,101.59108 86.1358,101.45748 L86.407,100.77868 C86.555,100.90108 86.7312,100.99948 86.9352,101.07348 C87.139,101.14788 87.3432,101.18488 87.547,101.18488 C87.7742,101.18488 87.9418,101.14688 88.0506,101.07068 C88.159,100.99488 88.2132,100.89388 88.2132,100.76748 C88.2132,100.67468 88.1812,100.59748 88.1172,100.53668 C88.053,100.47528 87.9708,100.42628 87.8704,100.38908 C87.77,100.35208 87.6344,100.31128 87.4632,100.26648 C87.2,100.19608 86.9846,100.12568 86.8168,100.05508 C86.6488,99.98488 86.505,99.87148 86.385,99.71568 C86.2648,99.55988 86.2048,99.35208 86.2048,99.09248 C86.2048,98.86608 86.2592,98.66108 86.3676,98.47748 C86.4762,98.29388 86.6398,98.14808 86.8588,98.04068 C87.0776,97.93308 87.345,97.87928 87.6606,97.87928 C87.881,97.87928 88.0964,97.90888 88.307,97.96828 C88.5178,98.02768 88.702,98.11288 88.8598,98.22428 L88.613,98.90868 C88.294,98.70468 87.9748,98.60288 87.6558,98.60288 C87.432,98.60288 87.2666,98.64348 87.1598,98.72508 C87.053,98.80688 86.9994,98.91428 86.9994,99.04768 C86.9994,99.18128 87.061,99.28068 87.1844,99.34548 C87.3078,99.41068 87.496,99.47448 87.7496,99.53748 C88.0126,99.60808 88.2282,99.67868 88.396,99.74888 C88.5636,99.81968 88.7076,99.93088 88.8278,100.08288 C88.9478,100.23508 89.008,100.44108 89.008,100.70068 C89.008,100.92328 88.9528,101.12648 88.8426,101.31008 C88.7322,101.49368 88.567,101.63928 88.3466,101.74668 C88.1262,101.85428 87.858,101.90848 87.5422,101.90848 C87.2692,101.90848 87.005,101.86668 86.7502,101.78308" id="Fill-33" fill="#A7A9AC"></path>
            <polygon id="Fill-34" fill="#A7A9AC" points="95.92676 97.94598 94.79676 101.84158 93.93796 101.84158 93.17796 99.20378 92.39336 101.84158 91.53936 101.84158 90.40456 97.94598 91.23356 97.94598 92.01336 100.68398 92.82756 97.94598 93.56776 97.94598 94.35736 100.70638 95.16196 97.94598"></polygon>
            <path d="M98.4336,100.98172 C98.598,100.87592 98.7274,100.72832 98.821,100.53932 C98.9148,100.35012 98.9618,100.13512 98.9618,99.89392 C98.9618,99.65252 98.9148,99.43732 98.821,99.24832 C98.7274,99.05912 98.598,98.91152 98.4336,98.80592 C98.2692,98.70012 98.0848,98.64712 97.8808,98.64712 C97.677,98.64712 97.4926,98.70012 97.3284,98.80592 C97.1636,98.91152 97.0346,99.05912 96.9408,99.24832 C96.847,99.43732 96.8002,99.65252 96.8002,99.89392 C96.8002,100.13512 96.847,100.35012 96.9408,100.53932 C97.0346,100.72832 97.1636,100.87592 97.3284,100.98172 C97.4926,101.08732 97.677,101.14032 97.8808,101.14032 C98.0848,101.14032 98.2692,101.08732 98.4336,100.98172 M96.9112,101.64672 C96.6232,101.47232 96.398,101.23212 96.2352,100.92612 C96.0722,100.61992 95.9908,100.27592 95.9908,99.89392 C95.9908,99.51152 96.0722,99.16752 96.2352,98.86152 C96.398,98.55532 96.6232,98.31512 96.9112,98.14092 C97.199,97.96652 97.5222,97.87932 97.8808,97.87932 C98.2394,97.87932 98.562,97.96652 98.848,98.14092 C99.1344,98.31512 99.3598,98.55532 99.5242,98.86152 C99.6888,99.16752 99.771,99.51152 99.771,99.89392 C99.771,100.27592 99.6888,100.61992 99.5242,100.92612 C99.3598,101.23212 99.1344,101.47232 98.848,101.64672 C98.562,101.82112 98.2394,101.90852 97.8808,101.90852 C97.5222,101.90852 97.199,101.82112 96.9112,101.64672" id="Fill-35" fill="#A7A9AC"></path>
            <path d="M102.24844,98.85594 C102.12344,98.73894 101.94084,98.68054 101.70084,98.68054 L101.04924,98.68054 L101.04924,100.03854 L101.70084,100.03854 C101.94084,100.03854 102.12344,99.97914 102.24844,99.86014 C102.37344,99.74174 102.43584,99.57474 102.43584,99.35974 C102.43584,99.14054 102.37344,98.97294 102.24844,98.85594 Z M102.45084,101.84154 L101.78464,100.75634 L101.74524,100.75634 L101.04924,100.75634 L101.04924,101.84154 L100.24984,101.84154 L100.24984,97.94594 L101.74524,97.94594 C102.05124,97.94594 102.31684,98.00354 102.54224,98.11854 C102.76744,98.23374 102.94104,98.39674 103.06284,98.60834 C103.18444,98.81974 103.24524,99.06994 103.24524,99.35974 C103.24524,99.64894 103.18384,99.89834 103.06024,100.10814 C102.93684,100.31774 102.76184,100.47794 102.53484,100.58934 L103.30944,101.84154 L102.45084,101.84154 Z" id="Fill-36" fill="#A7A9AC"></path>
            <polygon id="Fill-37" fill="#A7A9AC" points="104.41972 98.68054 103.31432 98.68054 103.31432 97.94594 106.32452 97.94594 106.32452 98.68054 105.21912 98.68054 105.21912 101.84154 104.41972 101.84154"></polygon>
            <polygon id="Fill-38" fill="#A7A9AC" points="109.79902 97.94598 109.79902 101.84158 108.99942 101.84158 108.99942 100.24438 107.43002 100.24438 107.43002 101.84158 106.63062 101.84158 106.63062 97.94598 107.43002 97.94598 107.43002 99.48198 108.99942 99.48198 108.99942 97.94598"></polygon>
            <polygon id="Fill-39" fill="#A7A9AC" points="111.76796 97.94598 112.56716 97.94598 112.56716 101.10698 114.29936 101.10698 114.29936 101.84158 111.76796 101.84158"></polygon>
            <path d="M116.67812,100.32214 L116.13052,98.83074 L115.58252,100.32214 L116.67812,100.32214 Z M116.92992,101.00674 L115.32592,101.00674 L115.02012,101.84154 L114.20072,101.84154 L115.74072,97.94594 L116.53012,97.94594 L118.07472,101.84154 L117.23592,101.84154 L116.92992,101.00674 Z" id="Fill-40" fill="#A7A9AC"></path>
            <path d="M118.61992,101.44656 C118.34532,101.13836 118.20772,100.69896 118.20772,100.12736 L118.20772,97.94596 L119.00732,97.94596 L119.00732,100.09416 C119.00732,100.79176 119.26412,101.14036 119.77712,101.14036 C120.02712,101.14036 120.21812,101.05596 120.34972,100.88716 C120.48132,100.71816 120.54732,100.45396 120.54732,100.09416 L120.54732,97.94596 L121.33672,97.94596 L121.33672,100.12736 C121.33672,100.69896 121.19932,101.13836 120.92452,101.44656 C120.64992,101.75436 120.26592,101.90856 119.77232,101.90856 C119.27892,101.90856 118.89472,101.75436 118.61992,101.44656" id="Fill-41" fill="#A7A9AC"></path>
            <path d="M124.3373,99.8325 L125.0675,99.8325 L125.0675,101.4129 C124.8801,101.5725 124.6629,101.6951 124.4163,101.7801 C124.1695,101.8657 123.9211,101.9085 123.6711,101.9085 C123.3123,101.9085 122.9899,101.8219 122.7037,101.6497 C122.4175,101.4771 122.1929,101.2377 122.0301,100.9315 C121.8673,100.6255 121.7857,100.2797 121.7857,99.8939 C121.7857,99.5081 121.8673,99.1619 122.0301,98.8559 C122.1929,98.5497 122.4191,98.3105 122.7085,98.1379 C122.9983,97.9655 123.3239,97.8793 123.6859,97.8793 C123.9885,97.8793 124.2633,97.9367 124.5099,98.0517 C124.7567,98.1667 124.9641,98.3337 125.1317,98.5527 L124.6185,99.0867 C124.3717,98.7939 124.0741,98.6471 123.7251,98.6471 C123.5047,98.6471 123.3089,98.6991 123.1381,98.8031 C122.9669,98.9069 122.8335,99.0533 122.7385,99.2427 C122.6429,99.4319 122.5951,99.6489 122.5951,99.8939 C122.5951,100.1351 122.6429,100.3501 122.7385,100.5393 C122.8335,100.7283 122.9663,100.8759 123.1355,100.9817 C123.3051,101.0873 123.4985,101.1403 123.7155,101.1403 C123.9457,101.1403 124.1529,101.0847 124.3373,100.9733 L124.3373,99.8325 Z" id="Fill-42" fill="#A7A9AC"></path>
            <polygon id="Fill-43" fill="#A7A9AC" points="128.85274 97.94598 128.85274 101.84158 128.05314 101.84158 128.05314 100.24438 126.48374 100.24438 126.48374 101.84158 125.68434 101.84158 125.68434 97.94598 126.48374 97.94598 126.48374 99.48198 128.05314 99.48198 128.05314 97.94598"></polygon>
            <polygon id="Fill-44" fill="#A7A9AC" points="129.5486 101.8416 130.348 101.8416 130.348 97.946 129.5486 97.946"></polygon>
            <polygon id="Fill-45" fill="#A7A9AC" points="134.2121 97.94598 134.2121 101.84158 133.5559 101.84158 131.8333 99.47618 131.8333 101.84158 131.0437 101.84158 131.0437 97.94598 131.7049 97.94598 133.4225 100.31118 133.4225 97.94598"></polygon>
            <path d="M137.242,99.8325 L137.9722,99.8325 L137.9722,101.4129 C137.7848,101.5725 137.5678,101.6951 137.321,101.7801 C137.0744,101.8657 136.8258,101.9085 136.5758,101.9085 C136.2172,101.9085 135.8948,101.8219 135.6086,101.6497 C135.3224,101.4771 135.0978,101.2377 134.935,100.9315 C134.772,100.6255 134.6906,100.2797 134.6906,99.8939 C134.6906,99.5081 134.772,99.1619 134.935,98.8559 C135.0978,98.5497 135.3238,98.3105 135.6134,98.1379 C135.903,97.9655 136.2288,97.8793 136.5906,97.8793 C136.8932,97.8793 137.1682,97.9367 137.4146,98.0517 C137.6616,98.1667 137.8688,98.3337 138.0366,98.5527 L137.5232,99.0867 C137.2766,98.7939 136.979,98.6471 136.63,98.6471 C136.4096,98.6471 136.2136,98.6991 136.0428,98.8031 C135.8716,98.9069 135.7384,99.0533 135.6432,99.2427 C135.5476,99.4319 135.4998,99.6489 135.4998,99.8939 C135.4998,100.1351 135.5476,100.3501 135.6432,100.5393 C135.7384,100.7283 135.871,100.8759 136.0404,100.9817 C136.2098,101.0873 136.4032,101.1403 136.6204,101.1403 C136.8504,101.1403 137.0578,101.0847 137.242,100.9733 L137.242,99.8325 Z" id="Fill-46" fill="#A7A9AC"></path>
            <polygon id="Fill-47" fill="#A7A9AC" points="140.66192 98.66942 140.66192 99.69882 142.26112 99.69882 142.26112 100.42242 140.66192 100.42242 140.66192 101.84142 139.86272 101.84142 139.86272 97.94602 142.47332 97.94602 142.47332 98.66942"></polygon>
            <path d="M145.08378,100.98172 C145.24838,100.87592 145.37758,100.72832 145.47118,100.53932 C145.56498,100.35012 145.61198,100.13512 145.61198,99.89392 C145.61198,99.65252 145.56498,99.43732 145.47118,99.24832 C145.37758,99.05912 145.24838,98.91152 145.08378,98.80592 C144.91938,98.70012 144.73518,98.64712 144.53098,98.64712 C144.32698,98.64712 144.14298,98.70012 143.97838,98.80592 C143.81378,98.91152 143.68498,99.05912 143.59098,99.24832 C143.49718,99.43732 143.45038,99.65252 143.45038,99.89392 C143.45038,100.13512 143.49718,100.35012 143.59098,100.53932 C143.68498,100.72832 143.81378,100.87592 143.97838,100.98172 C144.14298,101.08732 144.32698,101.14032 144.53098,101.14032 C144.73518,101.14032 144.91938,101.08732 145.08378,100.98172 M143.56138,101.64672 C143.27358,101.47232 143.04818,101.23212 142.88538,100.92612 C142.72238,100.61992 142.64098,100.27592 142.64098,99.89392 C142.64098,99.51152 142.72238,99.16752 142.88538,98.86152 C143.04818,98.55532 143.27358,98.31512 143.56138,98.14092 C143.84918,97.96652 144.17238,97.87932 144.53098,97.87932 C144.88978,97.87932 145.21238,97.96652 145.49838,98.14092 C145.78478,98.31512 146.00998,98.55532 146.17438,98.86152 C146.33898,99.16752 146.42118,99.51152 146.42118,99.89392 C146.42118,100.27592 146.33898,100.61992 146.17438,100.92612 C146.00998,101.23212 145.78478,101.47232 145.49838,101.64672 C145.21238,101.82112 144.88978,101.90852 144.53098,101.90852 C144.17238,101.90852 143.84918,101.82112 143.56138,101.64672" id="Fill-48" fill="#A7A9AC"></path>
            <path d="M148.89824,98.85594 C148.77324,98.73894 148.59064,98.68054 148.35084,98.68054 L147.69904,98.68054 L147.69904,100.03854 L148.35084,100.03854 C148.59064,100.03854 148.77324,99.97914 148.89824,99.86014 C149.02324,99.74174 149.08564,99.57474 149.08564,99.35974 C149.08564,99.14054 149.02324,98.97294 148.89824,98.85594 Z M149.10084,101.84154 L148.43444,100.75634 L148.39504,100.75634 L147.69904,100.75634 L147.69904,101.84154 L146.89984,101.84154 L146.89984,97.94594 L148.39504,97.94594 C148.70104,97.94594 148.96664,98.00354 149.19204,98.11854 C149.41744,98.23374 149.59104,98.39674 149.71264,98.60834 C149.83444,98.81974 149.89504,99.06994 149.89504,99.35974 C149.89504,99.64894 149.83364,99.89834 149.71024,100.10814 C149.58664,100.31774 149.41164,100.47794 149.18484,100.58934 L149.95944,101.84154 L149.10084,101.84154 Z" id="Fill-49" fill="#A7A9AC"></path>
            <path d="M16.19062,78.63542 C16.42582,78.86242 16.54402,79.14422 16.54402,79.48022 L16.54402,94.73822 C16.54402,95.07462 16.43022,95.36042 16.20342,95.59582 C15.97642,95.83142 15.67802,95.94882 15.30782,95.94882 C14.93842,95.94882 14.63542,95.83542 14.40022,95.60842 C14.16442,95.38122 14.04742,95.09122 14.04742,94.73822 L14.04742,83.06162 L9.15442,90.47602 C9.03682,90.62762 8.88982,90.75362 8.71342,90.85462 C8.53642,90.95522 8.35602,90.99742 8.17062,90.98042 C8.00262,90.99742 7.83062,90.95522 7.65422,90.85462 C7.47722,90.75362 7.33022,90.62762 7.21262,90.47602 L2.29482,82.83462 L2.29482,94.73822 C2.29482,95.09122 2.18982,95.38122 1.97962,95.60842 C1.76922,95.83542 1.48802,95.94882 1.13462,95.94882 C0.79842,95.94882 0.52482,95.83542 0.31522,95.60842 C0.10482,95.38122 2e-05,95.09122 2e-05,94.73822 L2e-05,79.48022 C2e-05,79.16122 0.11702,78.87942 0.35282,78.63542 C0.58802,78.39202 0.88262,78.26982 1.23562,78.26982 C1.43742,78.26982 1.63442,78.32002 1.82802,78.42102 C2.02102,78.52202 2.17702,78.65642 2.29482,78.82462 L8.27162,87.87842 L14.32482,78.82462 C14.59322,78.45502 14.93022,78.26982 15.33342,78.26982 C15.66962,78.28682 15.95542,78.40862 16.19062,78.63542" id="Fill-50" fill="#58595B"></path>
            <path d="M29.49716,82.96062 C29.72416,83.19642 29.83736,83.48182 29.83736,83.81802 L29.83736,94.71302 C29.83736,96.81482 29.25756,98.38642 28.09736,99.42922 C26.93736,100.47142 25.40696,100.99262 23.50736,100.99262 C22.88476,100.99262 22.27196,100.93342 21.66656,100.81622 C21.06116,100.69822 20.56516,100.53902 20.17856,100.33722 C19.55596,100.05122 19.24536,99.66462 19.24536,99.17702 C19.24536,99.09262 19.26196,98.98342 19.29576,98.84902 C19.39676,98.56322 19.53936,98.34482 19.72476,98.19342 C19.90936,98.04222 20.11896,97.96642 20.35496,97.96642 C20.48916,97.96642 20.61496,97.99162 20.73336,98.04222 C21.25436,98.27742 21.71696,98.46222 22.12036,98.59702 C22.52376,98.73142 22.99416,98.79862 23.53236,98.79862 C26.13836,98.79862 27.44156,97.46222 27.44156,94.78882 L27.44156,94.28442 C26.98776,94.88982 26.40356,95.36042 25.68896,95.69682 C24.97436,96.03282 24.15436,96.20102 23.22996,96.20102 C21.83396,96.20102 20.74556,95.75582 19.96376,94.86462 C19.18196,93.97342 18.79156,92.80502 18.79156,91.35882 L18.79156,83.81802 C18.79156,83.46482 18.90016,83.17502 19.11936,82.94822 C19.33736,82.72122 19.62376,82.60742 19.97656,82.60742 C20.32936,82.60742 20.61956,82.72522 20.84656,82.96062 C21.07336,83.19642 21.18716,83.48182 21.18716,83.81802 L21.18716,90.72822 C21.18716,91.83802 21.43056,92.65762 21.91836,93.18722 C22.40596,93.71682 23.14556,93.98162 24.13756,93.98162 C25.09636,93.98162 25.88636,93.67922 26.50836,93.07362 C27.13036,92.46842 27.44156,91.68682 27.44156,90.72822 L27.44156,83.81802 C27.44156,83.46482 27.55096,83.17502 27.76956,82.94822 C27.98816,82.72122 28.27376,82.60742 28.62716,82.60742 C28.98016,82.60742 29.27036,82.72522 29.49716,82.96062" id="Fill-51" fill="#58595B"></path>
            <path d="M43.24424,93.98172 C43.47104,94.21732 43.58484,94.49452 43.58484,94.81392 C43.58484,95.15052 43.47104,95.42352 43.24424,95.63372 C43.01724,95.84412 42.72724,95.94892 42.37424,95.94892 L33.59764,95.94892 C33.26144,95.94892 32.97564,95.83152 32.73984,95.59572 C32.50464,95.36052 32.38704,95.07472 32.38704,94.73812 L32.38704,79.50532 C32.38704,79.16952 32.50464,78.88392 32.73984,78.64792 C32.97564,78.41272 33.26144,78.29472 33.59764,78.29472 L42.37424,78.29472 C42.72724,78.29472 43.01724,78.40432 43.24424,78.62272 C43.47104,78.84172 43.58484,79.12752 43.58484,79.48012 C43.58484,79.81672 43.47104,80.08992 43.24424,80.29992 C43.01724,80.51032 42.72724,80.61512 42.37424,80.61512 L34.88364,80.61512 L34.88364,85.75992 L41.23904,85.75992 C41.59264,85.75992 41.88204,85.86932 42.10904,86.08772 C42.33644,86.30672 42.44964,86.58412 42.44964,86.91992 C42.44964,87.27312 42.33644,87.55072 42.10904,87.75252 C41.88204,87.95412 41.59264,88.05492 41.23904,88.05492 L34.88364,88.05492 L34.88364,93.62852 L42.37424,93.62852 C42.72724,93.62852 43.01724,93.74652 43.24424,93.98172" id="Fill-52" fill="#60BB55"></path>
            <path d="M52.7042,93.37644 C53.3172,92.97264 53.7966,92.41804 54.1416,91.71204 C54.4856,91.00564 54.6582,90.20724 54.6582,89.31604 C54.6582,88.44184 54.4856,87.64764 54.1416,86.93284 C53.7966,86.21824 53.3172,85.65924 52.7042,85.25564 C52.09,84.85224 51.388,84.65024 50.598,84.65024 C49.8074,84.65024 49.1056,84.85224 48.492,85.25564 C47.8784,85.65924 47.399,86.21824 47.0544,86.93284 C46.7098,87.64764 46.5374,88.44184 46.5374,89.31604 C46.5374,90.20724 46.7098,91.00564 47.0544,91.71204 C47.399,92.41804 47.8784,92.97264 48.492,93.37644 C49.1056,93.78024 49.8074,93.98164 50.598,93.98164 C51.388,93.98164 52.09,93.78024 52.7042,93.37644 M56.6128,77.62664 C56.8398,77.85384 56.9536,78.14364 56.9536,78.49684 L56.9536,94.73824 C56.9536,95.07464 56.8398,95.36044 56.6128,95.59584 C56.386,95.83144 56.0958,95.94884 55.7428,95.94884 C55.39,95.94884 55.1038,95.83544 54.885,95.60844 C54.6666,95.38124 54.5578,95.09124 54.5578,94.73824 L54.5578,94.03224 C54.1372,94.63764 53.5448,95.15044 52.7796,95.57044 C52.0146,95.99064 51.1944,96.20104 50.3208,96.20104 C49.1772,96.20104 48.143,95.90684 47.2186,95.31824 C46.2938,94.73004 45.5626,93.91044 45.0244,92.85924 C44.4862,91.80884 44.2176,90.62764 44.2176,89.31604 C44.2176,88.00484 44.4824,86.82344 45.0116,85.77264 C45.5416,84.72224 46.2682,83.90244 47.1932,83.31384 C48.118,82.72524 49.135,82.43084 50.2452,82.43084 C51.1356,82.43084 51.9602,82.61624 52.7164,82.98584 C53.4732,83.35584 54.0868,83.83504 54.5578,84.42324 L54.5578,78.49684 C54.5578,78.14364 54.6666,77.85384 54.885,77.62664 C55.1038,77.39964 55.39,77.28624 55.7428,77.28624 C56.0958,77.28624 56.386,77.39964 56.6128,77.62664" id="Fill-53" fill="#60BB55"></path>
            <path d="M69.98204,83.0868 C70.20904,83.3224 70.32284,83.608 70.32284,83.9442 L70.32284,90.6526 C70.32284,92.4016 69.83884,93.759 68.87244,94.7258 C67.90544,95.6928 66.53944,96.1758 64.77464,96.1758 C63.02584,96.1758 61.67204,95.6928 60.71384,94.7258 C59.75564,93.759 59.27624,92.4016 59.27624,90.6526 L59.27624,83.9442 C59.27624,83.608 59.39004,83.3224 59.61704,83.0868 C59.84404,82.8516 60.12524,82.7336 60.46204,82.7336 C60.81484,82.7336 61.10504,82.8516 61.33204,83.0868 C61.55884,83.3224 61.67204,83.608 61.67204,83.9442 L61.67204,90.6526 C61.67204,92.8556 62.70624,93.9566 64.77464,93.9566 C65.79984,93.9566 66.58164,93.6792 67.11984,93.1244 C67.65804,92.5694 67.92704,91.7458 67.92704,90.6526 L67.92704,83.9442 C67.92704,83.608 68.04024,83.3224 68.26704,83.0868 C68.49404,82.8516 68.77584,82.7336 69.11204,82.7336 C69.46504,82.7336 69.75524,82.8516 69.98204,83.0868" id="Fill-54" fill="#60BB55"></path>
            <path d="M71.86074,93.20008 C71.86074,92.86368 72.03774,92.57808 72.39054,92.34248 C72.55874,92.22488 72.75174,92.16588 72.97034,92.16588 C73.27334,92.16588 73.55074,92.29208 73.80254,92.54428 C74.30754,93.11588 74.84954,93.54468 75.42934,93.83028 C76.00974,94.11668 76.70314,94.25908 77.51054,94.25908 C78.14894,94.24248 78.71214,94.09528 79.19974,93.81788 C79.68754,93.54028 79.93114,93.09068 79.93114,92.46848 C79.93114,91.89688 79.68294,91.45988 79.18714,91.15708 C78.69094,90.85448 77.96434,90.57708 77.00554,90.32488 C76.06414,90.07248 75.28214,89.80788 74.66034,89.53048 C74.03834,89.25308 73.51294,88.84948 73.08414,88.31988 C72.65514,87.79028 72.44114,87.09668 72.44114,86.23928 C72.44114,85.48248 72.65514,84.81868 73.08414,84.24688 C73.51294,83.67548 74.08454,83.22948 74.79894,82.91008 C75.51374,82.59108 76.29074,82.43088 77.13194,82.43088 C77.93874,82.43088 78.74154,82.58248 79.54054,82.88488 C80.33894,83.18748 80.99014,83.65028 81.49514,84.27208 C81.69654,84.50768 81.79754,84.75128 81.79754,85.00348 C81.79754,85.27248 81.66274,85.53288 81.39414,85.78508 C81.22614,85.93668 81.01574,86.01248 80.76334,86.01248 C80.46094,86.01248 80.21674,85.91148 80.03194,85.70968 C79.67934,85.30608 79.24594,84.99528 78.73314,84.77648 C78.21994,84.55828 77.65294,84.44848 77.03114,84.44848 C76.39194,84.44848 75.84974,84.57908 75.40434,84.83948 C74.95894,85.10028 74.73574,85.54168 74.73574,86.16348 C74.75234,86.75228 75.00934,87.18928 75.50534,87.47508 C76.00074,87.76128 76.76194,88.03848 77.78794,88.30728 C78.67834,88.54288 79.41854,88.79508 80.00714,89.06368 C80.59514,89.33288 81.09114,89.73208 81.49514,90.26168 C81.89834,90.79128 82.10054,91.48508 82.10054,92.34248 C82.10054,93.13288 81.87294,93.81788 81.41914,94.39788 C80.96514,94.97808 80.37294,95.42348 79.64154,95.73448 C78.90954,96.04548 78.13174,96.20108 77.30854,96.20108 C76.24934,96.20108 75.26954,96.01588 74.37014,95.64608 C73.47074,95.27648 72.70954,94.68768 72.08754,93.88068 C71.93674,93.64568 71.86074,93.41868 71.86074,93.20008" id="Fill-55" fill="#60BB55"></path>
            <path d="M88.12792,85.07918 L88.12792,92.59478 C88.12792,93.43558 88.50652,93.85558 89.26332,93.85558 C89.38092,93.85558 89.54052,93.82638 89.74252,93.76718 C89.94392,93.70838 90.10372,93.67918 90.22132,93.67918 C90.44012,93.67918 90.62532,93.77178 90.77612,93.95658 C90.92772,94.14158 91.00312,94.37698 91.00312,94.66258 C91.00312,95.01578 90.80172,95.31818 90.39792,95.57038 C89.99452,95.82258 89.54052,95.94898 89.03632,95.94898 C88.48152,95.94898 87.97272,95.89018 87.51052,95.77238 C87.04792,95.65478 86.63612,95.35638 86.27432,94.87698 C85.91272,94.39798 85.73232,93.67078 85.73232,92.69538 L85.73232,85.07918 L84.26992,85.07918 C83.95032,85.07918 83.68492,84.97438 83.47532,84.76378 C83.26512,84.55378 83.16032,84.28918 83.16032,83.96958 C83.16032,83.65018 83.26512,83.38958 83.47532,83.18738 C83.68492,82.98578 83.95032,82.88478 84.26992,82.88478 L85.73232,82.88478 L85.73232,80.76658 C85.73232,80.43038 85.84612,80.14458 86.07312,79.90898 C86.29992,79.67398 86.59032,79.55598 86.94292,79.55598 C87.27912,79.55598 87.56112,79.67398 87.78792,79.90898 C88.01492,80.14458 88.12792,80.43038 88.12792,80.76658 L88.12792,82.88478 L90.22132,82.88478 C90.54092,82.88478 90.80572,82.99038 91.01572,83.20018 C91.22612,83.41058 91.33112,83.67538 91.33112,83.99478 C91.33112,84.31438 91.22612,84.57498 91.01572,84.77638 C90.80572,84.97818 90.54092,85.07918 90.22132,85.07918 L88.12792,85.07918 Z" id="Fill-56" fill="#60BB55"></path>
            <path d="M101.44296,82.77136 C101.76196,82.99856 101.92176,83.28016 101.92176,83.61636 C101.92176,84.01996 101.81696,84.32676 101.60656,84.53676 C101.39636,84.74736 101.13996,84.85216 100.83776,84.85216 C100.68616,84.85216 100.45936,84.80176 100.15616,84.70056 C99.80356,84.58356 99.52616,84.52436 99.32396,84.52436 C98.80316,84.52436 98.29436,84.70516 97.79836,85.06636 C97.30236,85.42816 96.89896,85.92396 96.58776,86.55436 C96.27636,87.18496 96.12116,87.88716 96.12116,88.66016 L96.12116,94.73816 C96.12116,95.07476 96.00796,95.36036 95.78096,95.59576 C95.55416,95.83156 95.26396,95.94896 94.91116,95.94896 C94.55756,95.94896 94.27196,95.83536 94.05336,95.60856 C93.83476,95.38136 93.72536,95.09136 93.72536,94.73816 L93.72536,83.94416 C93.72536,83.60816 93.83916,83.32236 94.06616,83.08676 C94.29296,82.85156 94.57416,82.73376 94.91116,82.73376 C95.26396,82.73376 95.55416,82.85156 95.78096,83.08676 C96.00796,83.32236 96.12116,83.60816 96.12116,83.94416 L96.12116,85.23036 C96.49116,84.40676 97.04616,83.73836 97.78616,83.22556 C98.52576,82.71296 99.36616,82.44796 100.30776,82.43096 C100.74516,82.43096 101.12336,82.54436 101.44296,82.77136" id="Fill-57" fill="#60BB55"></path>
            <path d="M106.1584,85.4448 C105.4688,85.9742 105.0148,86.794 104.7962,87.9038 L112.2364,87.9038 L112.2364,87.702 C112.152,86.811 111.7526,86.0796 111.0384,85.5076 C110.3232,84.9362 109.5128,84.6502 108.6044,84.6502 C107.663,84.6502 106.8474,84.9152 106.1584,85.4448 M114.405,89.6062 C114.1694,89.8164 113.892,89.9214 113.573,89.9214 L104.6954,89.9214 C104.8128,91.149 105.2794,92.1324 106.0952,92.8722 C106.9108,93.612 107.9066,93.9818 109.084,93.9818 C109.8906,93.9818 110.5464,93.8642 111.0508,93.6286 C111.5556,93.3934 112.0006,93.0906 112.3878,92.7206 C112.6396,92.5694 112.8832,92.4936 113.1192,92.4936 C113.4048,92.4936 113.6446,92.5948 113.8376,92.7964 C114.0306,92.9982 114.1278,93.2338 114.1278,93.5026 C114.1278,93.8556 113.9596,94.175 113.6234,94.4608 C113.1358,94.949 112.4882,95.3604 111.6816,95.6968 C110.8742,96.0328 110.0504,96.201 109.2098,96.201 C107.8484,96.201 106.65,95.9154 105.6164,95.3436 C104.5822,94.7722 103.7832,93.9736 103.2202,92.9476 C102.6568,91.9224 102.3756,90.7622 102.3756,89.4674 C102.3756,88.055 102.6652,86.8152 103.2456,85.7474 C103.8254,84.68 104.5904,83.8602 105.5402,83.2886 C106.49,82.717 107.5116,82.431 108.6044,82.431 C109.6802,82.431 110.6888,82.7084 111.631,83.2632 C112.5726,83.818 113.3288,84.5834 113.9008,85.5582 C114.4722,86.5336 114.7664,87.6262 114.7836,88.837 C114.7664,89.1396 114.6404,89.396 114.405,89.6062" id="Fill-58" fill="#60BB55"></path>
            <path d="M150,88.00476 L150,94.73816 C150,95.09136 149.8906,95.38136 149.672,95.60856 C149.4536,95.83536 149.1678,95.94896 148.815,95.94896 C148.4616,95.94896 148.1712,95.83156 147.9444,95.59576 C147.7174,95.36036 147.6042,95.07476 147.6042,94.73816 L147.6042,88.02996 C147.6042,85.82716 146.6794,84.72596 144.8302,84.72596 C144.1744,84.72596 143.5812,84.87336 143.052,85.16716 C142.522,85.46176 142.11,85.86076 141.8164,86.36516 C141.5218,86.86976 141.3748,87.42476 141.3748,88.02996 L141.3748,94.73816 C141.3748,95.07476 141.2618,95.36036 141.0342,95.59576 C140.8072,95.83156 140.5176,95.94896 140.1642,95.94896 C139.8114,95.94896 139.525,95.83536 139.307,95.60856 C139.0884,95.38136 138.9792,95.09136 138.9792,94.73816 L138.9792,88.00476 C138.9792,87.01276 138.7688,86.21816 138.3482,85.62116 C137.9284,85.02496 137.2302,84.72596 136.2548,84.72596 C135.2628,84.72596 134.4436,85.04116 133.7966,85.67176 C133.149,86.30216 132.825,87.08016 132.825,88.00476 L132.825,94.73816 C132.825,95.07476 132.712,95.36036 132.485,95.59576 C132.258,95.83156 131.968,95.94896 131.615,95.94896 C131.2616,95.94896 130.9758,95.83536 130.7572,95.60856 C130.5386,95.38136 130.4292,95.09136 130.4292,94.73816 L130.4292,83.94416 C130.4292,83.60816 130.5432,83.32236 130.7702,83.08676 C130.9968,82.85156 131.2782,82.73376 131.615,82.73376 C131.968,82.73376 132.258,82.85156 132.485,83.08676 C132.712,83.32236 132.825,83.60816 132.825,83.94416 L132.825,84.82696 C133.2624,84.17116 133.8464,83.62076 134.5784,83.17516 C135.3096,82.72976 136.1042,82.50676 136.9612,82.50676 C139.0462,82.50676 140.3994,83.43176 141.022,85.28076 C141.3914,84.57496 142.005,83.93596 142.8628,83.36416 C143.72,82.79276 144.6284,82.50676 145.5864,82.50676 C148.5286,82.50676 150,84.33936 150,88.00476" id="Fill-59" fill="#60BB55"></path>
            <path d="M121.51816,91.50906 C120.99316,92.20606 120.31596,92.02886 120.01316,91.11506 L119.38276,89.21326 C119.08016,88.29966 119.23636,87.66886 119.73036,87.81146 C120.22396,87.95386 120.79316,88.11806 120.99496,88.17626 C121.19676,88.23446 121.83976,88.42026 122.42416,88.58866 C123.00856,88.75726 123.25836,89.19826 122.97956,89.56846 C122.70076,89.93866 122.04296,90.81206 121.51816,91.50906 M115.25876,80.13406 C114.59676,79.93986 114.23436,80.32226 114.45376,80.98426 C114.67296,81.64606 114.78356,82.26946 116.53156,82.67986 L124.38276,84.98266 C125.30636,85.25366 125.92216,85.50586 125.59876,86.03126 L125.27536,86.55666 C125.03256,86.95426 124.07256,86.89406 123.14776,86.62706 L117.28296,84.93426 C116.35816,84.66726 115.78076,84.98906 115.99936,85.64906 C116.21816,86.30926 119.28116,95.55266 119.28116,95.55266 C119.58396,96.46626 120.30556,96.58486 120.88436,95.81586 L128.48756,85.72066 C129.06656,84.95186 128.78456,84.10106 127.86096,83.83006 C127.86096,83.83006 115.92116,80.32826 115.25876,80.13406" id="Fill-60" fill="#60BB55"></path>
            <path d="M90.51542,40.36306 C90.40342,40.64446 90.29042,40.92506 90.17202,41.20006 C90.09062,41.38986 90.00562,41.57606 89.92102,41.76286 C89.81622,41.99426 89.71022,42.22406 89.60082,42.45066 C89.50282,42.65466 89.40282,42.85646 89.30102,43.05666 C89.20122,43.25286 89.09922,43.44646 88.99602,43.63906 C88.88062,43.85506 88.76502,44.07066 88.64542,44.28206 C88.55722,44.43826 88.46562,44.59126 88.37522,44.74526 C88.23622,44.98146 88.09842,45.21826 87.95482,45.44906 C87.92842,45.49126 87.90062,45.53166 87.87422,45.57366 C87.46482,46.22366 87.03742,46.85286 86.59142,47.45926 C86.59042,47.46046 86.58962,47.46186 86.58882,47.46306 L90.37162,50.10306 C90.37162,50.10306 90.58162,63.07866 77.07102,65.25766 C77.12542,65.25566 77.17982,65.25486 77.23422,65.25286 C79.46462,65.16306 81.68742,64.93766 83.88462,64.57446 C84.49142,64.47426 85.10302,64.36586 85.71802,64.24806 C86.33262,64.13026 86.95022,64.00346 87.56842,63.86566 C89.73202,63.38426 91.90342,62.77466 93.98622,61.98786 C94.58142,61.76306 95.16942,61.52366 95.74762,61.26886 C96.61522,60.88666 97.46142,60.46906 98.27882,60.01286 L98.27882,56.56066 L98.27882,35.68166 C95.91562,36.63126 93.55242,37.58086 91.18882,38.53026 C91.03582,38.99326 90.87242,39.44646 90.70282,39.89306 C90.64262,40.05186 90.57782,40.20626 90.51542,40.36306" id="Fill-61" fill="#A1E07C"></path>
            <path d="M70.84668,43.43552 C70.21168,43.14532 69.58448,42.85732 68.97268,42.61152 C63.22348,40.30172 57.47428,37.99152 51.72508,35.68172 L51.72508,43.83192 C53.49068,43.13832 55.30908,42.61112 57.14248,42.26612 C57.75348,42.15112 58.36608,42.05632 58.97908,41.98232 C60.61328,41.78472 62.24928,41.73492 63.86008,41.84352 C64.26268,41.87052 64.66368,41.90752 65.06288,41.95472 C66.65928,42.14292 68.22368,42.49212 69.72928,43.01292 C70.10568,43.14292 70.47828,43.28392 70.84668,43.43552 L70.84688,43.43552 C70.84688,43.43552 70.84668,43.43552 70.84668,43.43552" id="Fill-62" fill="#397037"></path>
            <path d="M78.833,43.4948 C77.834,43.8962 76.2334,44.9168 75.002,44.9106 C74.8582,44.9098 74.7182,44.8984 74.5862,44.8668 C73.3386,44.5698 72.0774,43.998 70.847,43.4356 C70.4784,43.2838 70.1056,43.143 69.7292,43.0128 C68.2236,42.4922 66.6592,42.143 65.0628,41.9546 C64.6638,41.9076 64.2626,41.8706 63.86,41.8434 C62.2494,41.735 60.6134,41.7848 58.979,41.9824 C56.5274,42.2784 54.0792,42.907 51.725,43.832 L51.725,54.4934 L51.725,60.0104 C52.4274,60.393 53.155,60.7368 53.8934,61.0544 C54.6316,61.3718 55.3806,61.6628 56.1256,61.9398 C56.127,61.9404 56.1284,61.9406 56.1298,61.9412 C56.4644,62.0656 56.8032,62.179 57.1402,62.2964 L57.1324,62.3008 C57.956,62.5878 58.7872,62.8548 59.6246,63.1006 C59.9482,63.1958 60.2728,63.2874 60.5982,63.3762 C60.7616,63.4208 60.9256,63.463 61.0896,63.506 C61.2792,63.5558 61.4692,63.6056 61.6594,63.6534 C61.8308,63.6966 62.0026,63.7382 62.1744,63.7794 C62.3618,63.8244 62.5496,63.8686 62.7376,63.9118 C62.9064,63.9504 63.075,63.9892 63.2444,64.0262 C63.4496,64.0712 63.6556,64.1142 63.8618,64.1568 C64.0126,64.188 64.1634,64.2204 64.3146,64.2504 C64.6534,64.3174 64.9926,64.3818 65.3326,64.4422 C65.4686,64.4666 65.6052,64.4884 65.7414,64.5118 C65.9686,64.5504 66.1958,64.5888 66.4234,64.6246 C66.5776,64.649 66.732,64.6718 66.8862,64.6948 C67.101,64.7268 67.3158,64.7576 67.531,64.787 C67.6832,64.8078 67.8356,64.8286 67.9882,64.8482 C68.2216,64.878 68.4554,64.906 68.6892,64.9326 C68.82,64.948 68.9506,64.964 69.0814,64.978 C69.4386,65.0164 69.796,65.0522 70.154,65.0838 C70.23,65.0906 70.306,65.0956 70.382,65.102 C70.6746,65.1266 70.9674,65.1492 71.2604,65.1692 C71.3892,65.178 71.518,65.1854 71.6468,65.1932 C71.8912,65.208 72.1356,65.2218 72.3802,65.2332 C72.5152,65.2398 72.6504,65.2458 72.7856,65.2512 C73.0386,65.2614 73.2916,65.2694 73.5448,65.276 C73.6624,65.2792 73.78,65.283 73.8976,65.2854 C74.2656,65.2928 74.6338,65.2976 75.0018,65.2978 L75.002,65.2978 C75.3742,65.2978 75.7464,65.294 76.1186,65.2864 C76.4362,65.2802 76.7536,65.2696 77.071,65.2576 C90.5816,63.0784 90.3716,50.103 90.3716,50.103 L86.5888,47.463 C86.5896,47.4618 86.5904,47.4606 86.5914,47.4594 C87.0374,46.8528 87.4648,46.2238 87.8742,45.5738 C87.9006,45.5316 87.9286,45.4912 87.9548,45.449 C88.0984,45.2184 88.2364,44.9814 88.3752,44.7452 C88.4656,44.5912 88.5572,44.4386 88.6456,44.282 C88.765,44.0706 88.8806,43.855 88.996,43.6392 C89.099,43.4464 89.2014,43.253 89.301,43.0566 C89.4028,42.8564 89.5028,42.6546 89.6008,42.4506 C89.7102,42.224 89.8162,41.9942 89.921,41.7628 C90.0056,41.5762 90.0906,41.3898 90.172,41.2 C90.2904,40.925 90.4036,40.6446 90.5154,40.363 C90.5778,40.2062 90.6426,40.052 90.7028,39.8932 C90.8724,39.4464 91.0358,38.9934 91.1888,38.5304 C87.0704,40.1852 82.9516,41.84 78.833,43.4948" id="Fill-63" fill="#60BB55"></path>
            <path d="M68.78604,53.29188 C69.87084,55.77228 71.94024,57.74968 74.50384,58.65788 C74.96744,58.82208 75.44564,58.95568 75.93904,59.04628 C81.45164,60.05868 87.26584,55.05748 87.73464,49.54088 C84.05424,52.75008 79.29824,54.29728 74.50384,54.19988 C72.58184,54.16108 70.65344,53.85868 68.78604,53.29188" id="Fill-64" fill="#FFFFFF"></path>
            <path d="M100.99628,34.58992 C100.09048,34.95372 99.18468,35.31772 98.27888,35.68152 L98.27888,56.56072 L98.27888,60.01272 C97.46148,60.46912 96.61528,60.88652 95.74768,61.26892 C95.16928,61.52372 94.58148,61.76292 93.98628,61.98772 C93.46568,62.18452 92.93948,62.37012 92.40908,62.54552 C90.81808,63.07152 89.19128,63.50472 87.56828,63.86572 C86.95028,64.00332 86.33268,64.13032 85.71788,64.24812 C85.10308,64.36592 84.49148,64.47432 83.88448,64.57452 C81.68748,64.93752 79.46468,65.16292 77.23408,65.25272 C77.17988,65.25492 77.12548,65.25572 77.07108,65.25772 C76.75348,65.26952 76.43608,65.28012 76.11848,65.28632 C75.74648,65.29412 75.37428,65.29772 75.00208,65.29772 L75.00168,65.29772 C74.63388,65.29752 74.26568,65.29292 73.89768,65.28552 C73.77988,65.28312 73.66248,65.27912 73.54488,65.27612 C73.29168,65.26932 73.03848,65.26132 72.78548,65.25132 C72.65048,65.24572 72.51528,65.23972 72.38028,65.23332 C72.13568,65.22172 71.89128,65.20812 71.64688,65.19332 C71.51808,65.18552 71.38908,65.17792 71.26048,65.16912 C70.96748,65.14932 70.67468,65.12672 70.38208,65.10212 C70.30608,65.09552 70.22988,65.09052 70.15408,65.08392 C69.79608,65.05232 69.43848,65.01652 69.08148,64.97792 C68.95048,64.96392 68.81988,64.94792 68.68908,64.93272 C68.45528,64.90572 68.22148,64.87792 67.98808,64.84812 C67.83568,64.82852 67.68328,64.80792 67.53088,64.78692 C67.31588,64.75772 67.10088,64.72692 66.88628,64.69472 C66.73188,64.67172 66.57768,64.64892 66.42348,64.62472 C66.19588,64.58872 65.96848,64.55052 65.74148,64.51172 C65.60508,64.48852 65.46868,64.46652 65.33268,64.44232 C64.99268,64.38152 64.65328,64.31772 64.31468,64.25052 C64.16328,64.22032 64.01268,64.18792 63.86168,64.15672 C63.65568,64.11412 63.44968,64.07112 63.24428,64.02632 C63.07508,63.98912 62.90628,63.95052 62.73768,63.91172 C62.54968,63.86872 62.36188,63.82472 62.17448,63.77932 C62.00248,63.73812 61.83088,63.69652 61.65948,63.65332 C61.46908,63.60552 61.27928,63.55572 61.08948,63.50592 C60.92548,63.46292 60.76148,63.42072 60.59808,63.37632 C60.27268,63.28732 59.94828,63.19572 59.62468,63.10072 C58.78708,62.85472 57.95608,62.58772 57.13228,62.30092 L57.14028,62.29632 C56.80308,62.17892 56.46448,62.06552 56.12988,61.94132 C56.12848,61.94072 56.12708,61.94032 56.12548,61.93972 C55.38068,61.66272 54.63168,61.37172 53.89328,61.05432 C53.15508,60.73672 52.42748,60.39312 51.72508,60.01052 L51.72508,35.68172 C50.84148,35.32672 49.95788,34.97172 49.07428,34.61652 L49.07428,48.55492 L49.07428,59.57572 C49.07428,60.46852 48.92828,61.33292 49.74788,61.93672 C50.60908,62.57112 51.75788,62.98252 52.72768,63.40572 C59.69568,66.44612 67.35068,67.95472 75.00208,67.95312 C81.42508,67.95192 87.84528,66.88732 93.85388,64.76052 C95.74008,64.09312 97.60728,63.32732 99.38648,62.40912 C100.20868,61.98472 100.84828,61.66492 100.92988,60.61852 C101.15108,57.77652 100.92988,54.82692 100.92988,51.97872 C100.92988,46.18672 101.00908,40.38612 100.99628,34.58992" id="Fill-65" fill="#58595B"></path>
            <path d="M122.63204,20.95076 C117.36164,18.61356 77.60204,0.98196 75.67104,0.12576 C75.44144,0.02396 75.21644,-0.01124 75.00424,0.00316 C75.00344,0.00316 75.00284,0.00316 75.00204,0.00316 C74.78924,-0.01144 74.56364,0.02356 74.33304,0.12576 C69.06264,2.46296 63.79244,4.79996 58.52204,7.13716 C50.06964,10.88536 41.61744,14.63356 33.16504,18.38176 C31.23404,19.23816 29.30284,20.09436 27.37184,20.95076 C26.20324,21.46896 26.76544,23.00256 27.68844,23.37336 C31.85284,25.04656 36.01724,26.71956 40.18144,28.39276 L40.18144,39.86916 C39.22984,40.36356 38.56144,41.36156 38.56144,42.48516 L38.56144,45.67696 L39.44504,45.67696 L39.44504,48.44556 C39.44504,48.44556 39.54004,48.77116 40.00124,48.77116 C40.46244,48.77116 40.55724,48.44556 40.55724,48.44556 L40.55724,45.67696 L42.45644,45.67696 L42.45644,48.44556 C42.45644,48.44556 42.55124,48.77116 43.01244,48.77116 C43.47364,48.77116 43.56864,48.44556 43.56864,48.44556 L43.56864,45.67696 L44.45224,45.67696 L44.45224,42.48516 C44.45224,41.36656 43.78224,40.36756 42.83224,39.87136 L42.83224,29.45796 C43.10284,29.56656 72.69464,41.76556 74.58604,42.21616 C74.71824,42.24756 74.85824,42.25896 75.00204,42.25976 C76.23344,42.26596 122.20864,23.41616 122.31544,23.37336 C123.23224,23.00496 123.79564,21.46676 122.63204,20.95076" id="Fill-66" fill="#58595B"></path>
            <path d="M87.73458,49.5409 C87.26578,55.0575 81.45158,60.0587 75.93898,59.0463 C75.44578,58.9557 74.96758,58.8221 74.50378,58.6579 C71.94018,57.7497 69.87098,55.7723 68.78598,53.2919 C70.65358,53.8587 72.58178,54.1611 74.50378,54.1999 C79.29818,54.2971 84.05458,52.7501 87.73458,49.5409 M74.50378,51.5319 C74.37198,51.5267 74.24138,51.5247 74.10918,51.5165 C72.48278,51.4161 70.87498,51.1063 69.31378,50.6425 C68.79118,50.4871 68.27858,50.3075 67.76678,50.1201 C67.72818,50.1059 67.60698,50.0577 67.51978,50.0229 C67.58398,50.0501 67.64078,50.0737 67.49018,50.0121 C67.37418,49.9649 67.42858,49.9867 67.51978,50.0229 C67.49278,50.0115 67.46478,49.9993 67.44958,49.9925 C66.33658,49.4815 65.32978,50.3163 65.50258,51.4893 C66.20898,56.2821 69.94278,60.1673 74.50378,61.4147 C75.11938,61.5831 75.74958,61.7049 76.38998,61.7729 C82.87658,62.4611 89.69778,56.6371 90.37178,50.1031 C91.08738,50.7753 91.71958,51.5117 92.24078,52.2335 C93.23038,53.6037 95.53098,52.2821 94.52978,50.8955 C92.25258,47.7415 88.41038,44.4479 84.19338,44.8225 C82.50738,44.9723 82.49158,47.6245 84.19338,47.4735 C84.78798,47.4205 85.37398,47.4649 85.94658,47.5861 C82.76718,50.3641 78.81738,51.7067 74.50378,51.5319" id="Fill-67" fill="#58595B"></path>
            <path d="M90.7459,9.69304 C86.8367,22.80684 76.5843,31.44784 67.6229,36.72644 L74.7515,39.64444 L118.5785,22.03544 C117.5527,21.58064 98.9979,13.35224 90.7459,9.69304" id="Fill-68" fill="#A7A9AC"></path>
        </g>
    </g>
</svg>