<?xml version="1.0" encoding="UTF-8"?>
<svg width="45px" height="45px" viewBox="0 0 45 45" version="1.1" xmlns="http://www.w3.org/2000/svg" xmlns:xlink="http://www.w3.org/1999/xlink">
    <!-- Generator: Sketch 52.2 (67145) - http://www.bohemiancoding.com/sketch -->
    <title>Group 4</title>
    <desc>Created with Sketch.</desc>
    <g id="Marketing-Landing-Page" stroke="none" stroke-width="1" fill="none" fill-rule="evenodd">
        <g id="Post-Launch-Landing---Concept-A---1" transform="translate(-628.000000, -2223.000000)">
            <g id="Social-Links" transform="translate(628.000000, 2223.000000)">
                <g id="Group-4">
                    <path d="M44.7906977,22.5 C44.7906977,34.9266797 34.7954651,45 22.4651163,45 C10.1351163,45 0.139534884,34.9266797 0.139534884,22.5 C0.139534884,10.0736719 10.1351163,0 22.4651163,0 C34.7954651,0 44.7906977,10.0736719 44.7906977,22.5" id="Fill-282" fill="#3A703A"></path>
                    <g id="icons8-play-button" transform="translate(10.000000, 14.000000)">
                        <path d="M23.9019628,14.9390628 C23.6590128,16.2 22.6229043,17.1609378 21.3414634,17.3390628 C19.3287921,17.6390628 15.9751335,18 12.195122,18 C8.47465732,18 5.12099878,17.6390628 3.04878049,17.3390628 C1.76734024,17.1609378 0.731231098,16.2 0.488281098,14.9390628 C0.24295,13.5609378 0,11.5195314 0,9 C0,6.4804686 0.24295,4.4390628 0.488281098,3.0609378 C0.731231098,1.8 1.76734024,0.8390628 3.04878049,0.6609378 C5.06145183,0.3609378 8.41511037,0 12.195122,0 C15.9751335,0 19.2692457,0.3609378 21.3414634,0.6609378 C22.6229043,0.8390628 23.6590128,1.8 23.9019628,3.0609378 C24.1472945,4.4390628 24.4521726,6.4804686 24.4521726,9 C24.3902439,11.5195314 24.1472945,13.5609378 23.9019628,14.9390628 Z" id="Path" fill="#FFFFFF"></path>
                        <polygon id="Path" fill="#3A703A" points="9.75609756 13.2 9.75609756 4.8 17.0731707 9"></polygon>
                    </g>
                </g>
            </g>
        </g>
    </g>
</svg>